<?xml version="1.0" encoding="utf-8"?>
<!-- Generator: Adobe Illustrator 21.0.2, SVG Export Plug-In . SVG Version: 6.00 Build 0)  -->
<svg version="1.1" id="Layer_1" xmlns="http://www.w3.org/2000/svg" xmlns:xlink="http://www.w3.org/1999/xlink" x="0px" y="0px"
	 viewBox="0 0 24 24" style="enable-background:new 0 0 24 24;" xml:space="preserve">
<style type="text/css">
	.st0{fill:none;stroke:#E63B2F;stroke-linecap:round;stroke-linejoin:round;stroke-miterlimit:10;}
	.st1{fill:none;}
</style>
<path class="st0" d="M5.5,20.3H4c-0.8,0-1.5-0.6-1.5-1.3v-3.4c0-0.7,0.7-1.3,1.5-1.3h1.8L5.5,20.3z"/>
<path class="st0" d="M18.5,20.3H20c0.8,0,1.5-0.6,1.5-1.3v-3.4c0-0.7-0.7-1.3-1.5-1.3h-1.8L18.5,20.3z"/>
<path class="st0" d="M14,20.3h-4c-0.6,0-1-0.4-1-1v-2.7c0-0.5,0.4-1,1-1h4c0.6,0,1,0.4,1,1v2.7C15,19.9,14.6,20.3,14,20.3z"/>
<path class="st0" d="M18,10.5l0.5,10c0,1.7-1.3,3-3,3h-7c-1.7,0-3-1.3-3-3l0.5-10"/>
<line class="st0" x1="10.5" y1="10.5" x2="13.5" y2="10.5"/>
<rect x="8.5" y="8" class="st0" width="2" height="4"/>
<rect x="13.5" y="8" class="st0" width="2" height="4"/>
<path class="st0" d="M8.5,10.5h-3c-0.6,0-1-0.4-1-1v-6c0-1.7,1.3-3,3-3h9c1.7,0,3,1.3,3,3v6c0,0.6-0.4,1-1,1h-3"/>
<g id="invisible_shape">
	<rect class="st1" width="24" height="24"/>
</g>
<g id="Outline_Icons_1_">
	<g>
		<path class="st0" d="M35.4,25.3h-2c-0.6,0-1-0.4-1-1v-4.5c0-0.8,0.7-1.5,1.5-1.5h1.5V25.3z"/>
		<path class="st0" d="M48.4,25.3h2c0.6,0,1-0.4,1-1v-4.5c0-0.8-0.7-1.5-1.5-1.5h-1.5V25.3z"/>
		<path class="st0" d="M46.4,25.3h-9v-5.5c0-0.8,0.7-1.5,1.5-1.5h6c0.8,0,1.5,0.7,1.5,1.5V25.3z"/>
		<polyline class="st0" points="48.4,12.3 48.4,25.3 35.4,25.3 35.4,12.3 		"/>
		<line class="st0" x1="39.4" y1="12.3" x2="44.4" y2="12.3"/>
		<rect x="37.4" y="9.3" class="st0" width="2" height="5"/>
		<rect x="44.4" y="9.3" class="st0" width="2" height="5"/>
		<line class="st0" x1="37.4" y1="21.3" x2="46.4" y2="21.3"/>
		<line class="st0" x1="32.4" y1="21.3" x2="35.4" y2="21.3"/>
		<line class="st0" x1="48.4" y1="21.3" x2="51.4" y2="21.3"/>
		<path class="st0" d="M37.4,12.3h-2c-0.6,0-1-0.4-1-1v-6c0-1.7,1.3-3,3-3h9c1.7,0,3,1.3,3,3v6c0,0.6-0.4,1-1,1h-2"/>
	</g>
</g>
</svg>
