<?xml version="1.0" encoding="utf-8"?>
<!-- Generator: Adobe Illustrator 21.0.2, SVG Export Plug-In . SVG Version: 6.00 Build 0)  -->
<svg version="1.1" id="Layer_1" xmlns="http://www.w3.org/2000/svg" xmlns:xlink="http://www.w3.org/1999/xlink" x="0px" y="0px"
	 viewBox="0 0 24 24" style="enable-background:new 0 0 24 24;" xml:space="preserve">
<style type="text/css">
	.st0{fill:none;stroke:#E63B2F;stroke-linecap:round;stroke-linejoin:round;stroke-miterlimit:10;}
	.st1{fill:none;}
</style>
<g id="Outline_Icons">
	<g>
		<polyline class="st0" points="1.5,10.5 1.5,23.5 22.5,23.5 22.5,10.5 		"/>
		<path class="st0" d="M8,10.5c0-2.2,1.8-4,4-4s4,1.8,4,4h7.5l-4-10h-15l-4,10H8z"/>
		<path class="st0" d="M13.5,11c0-0.8-0.7-1.5-1.5-1.5s-1.5,0.7-1.5,1.5v3.5h3V11z"/>
		<path class="st0" d="M10.5,23.5V20c0-0.8,0.7-1.5,1.5-1.5s1.5,0.7,1.5,1.5v3.5"/>
		<rect x="16.5" y="17.5" class="st0" width="4" height="3"/>
		<rect x="16.5" y="12.5" class="st0" width="4" height="3"/>
		<rect x="3.5" y="17.5" class="st0" width="4" height="3"/>
		<rect x="3.5" y="12.5" class="st0" width="4" height="3"/>
	</g>
</g>
<g id="invisible_shape">
	<rect class="st1" width="24" height="24"/>
</g>
</svg>
