<?xml version="1.0" encoding="utf-8"?>
<!-- Generator: Adobe Illustrator 21.0.2, SVG Export Plug-In . SVG Version: 6.00 Build 0)  -->
<svg version="1.1" id="Layer_1" xmlns="http://www.w3.org/2000/svg" xmlns:xlink="http://www.w3.org/1999/xlink" x="0px" y="0px"
	 viewBox="0 0 24 24" style="enable-background:new 0 0 24 24;" xml:space="preserve">
<style type="text/css">
	.st0{fill:none;stroke:#E63B2F;stroke-linejoin:round;stroke-miterlimit:10;}
	.st1{fill:#E63B2F;}
	.st2{fill:none;}
</style>
<g id="Outline_Icons">
	<g>
		<path class="st0" d="M16.5,22.5c0-1.1-0.9-2-2-2h-4c-1.1,0-2,0.9-2,2v1h8V22.5z"/>
		<line class="st0" x1="7" y1="6.5" x2="18" y2="6.5"/>
		<g>
			<path class="st1" d="M14.5,9C14.2,9,14,9.2,14,9.5s0.2,0.5,0.5,0.5c0.3,0,0.5-0.2,0.5-0.5S14.8,9,14.5,9L14.5,9z"/>
		</g>
		<g>
			<path class="st1" d="M12.5,11c-0.3,0-0.5,0.2-0.5,0.5s0.2,0.5,0.5,0.5c0.3,0,0.5-0.2,0.5-0.5S12.8,11,12.5,11L12.5,11z"/>
		</g>
		<g>
			<path class="st1" d="M10,8C9.7,8,9.5,8.2,9.5,8.5S9.7,9,10,9c0.3,0,0.5-0.2,0.5-0.5S10.3,8,10,8L10,8z"/>
		</g>
		<g>
			<path class="st1" d="M12,14.5c-0.3,0-0.5,0.2-0.5,0.5s0.2,0.5,0.5,0.5c0.3,0,0.5-0.2,0.5-0.5S12.3,14.5,12,14.5L12,14.5z"/>
		</g>
		<path class="st0" d="M18.1,6.4c-0.2,0.1-0.4,0.1-0.6,0.1c-1.1,0-2-0.9-2-2c0-0.4,0.1-0.7,0.3-1H7H6.5c0.1,3.1,0.9,4.9,2.2,8
			C9.7,13.8,10,19,9,21v0.2c0.4-0.4,0.9-0.7,1.5-0.7h4c0.6,0,1.1,0.3,1.5,0.7V21c-0.5-2-0.7-7.2,0.3-9.5C17.2,9.5,17.8,8,18.1,6.4z"
			/>
		<path class="st0" d="M17.5,0.5H6.9c0,0,0,0-0.1,0c-1.9,0-1.8,3,0.1,3h8.8c-0.2,0.3-0.3,0.6-0.3,1c0,1.1,0.9,2,2,2
			c0.4,0,0.7-0.1,1-0.3v2.3c0,0.6,0.4,1,1,1c0.6,0,1-0.4,1-1v-5C20.5,1.8,19.2,0.5,17.5,0.5z"/>
	</g>
</g>
<g id="invisible_shape">
	<rect class="st2" width="24" height="24"/>
</g>
</svg>
