<?xml version="1.0" encoding="utf-8"?>
<!-- Generator: Adobe Illustrator 21.0.2, SVG Export Plug-In . SVG Version: 6.00 Build 0)  -->
<svg version="1.1" id="Layer_1" xmlns="http://www.w3.org/2000/svg" xmlns:xlink="http://www.w3.org/1999/xlink" x="0px" y="0px"
	 viewBox="0 0 24 24" style="enable-background:new 0 0 24 24;" xml:space="preserve">
<style type="text/css">
	.st0{fill:none;stroke:#E63B2F;stroke-linecap:round;stroke-linejoin:round;stroke-miterlimit:10;}
	.st1{fill:none;}
</style>
<g id="Outline_Icons">
	<g>
		<path class="st0" d="M19.5,23.5l-2-13h-11l-2,13h6v-4c0-0.8,0.7-1.5,1.5-1.5s1.5,0.7,1.5,1.5v4H19.5z"/>
		<path class="st0" d="M3.5,2.5V9c0,0.8,0.7,1.5,1.5,1.5h14c0.8,0,1.5-0.7,1.5-1.5V2.5h-3V4c0,0.8-0.7,1.5-1.5,1.5S14.5,4.8,14.5,4
			V2.5h-5V4c0,0.8-0.7,1.5-1.5,1.5C7.2,5.5,6.5,4.8,6.5,4V2.5H3.5z"/>
		<circle class="st0" cx="12" cy="14" r="1.5"/>
	</g>
</g>
<g id="invisible_shape">
	<rect class="st1" width="24" height="24"/>
</g>
</svg>
