<?xml version="1.0" encoding="utf-8"?>
<!-- Generator: Adobe Illustrator 21.0.2, SVG Export Plug-In . SVG Version: 6.00 Build 0)  -->
<svg version="1.1" id="Layer_1" xmlns="http://www.w3.org/2000/svg" xmlns:xlink="http://www.w3.org/1999/xlink" x="0px" y="0px"
	 viewBox="0 0 24 24" style="enable-background:new 0 0 24 24;" xml:space="preserve">
<style type="text/css">
	.st0{fill:none;stroke:#E63B2F;stroke-linejoin:round;stroke-miterlimit:10;}
	.st1{fill:none;stroke:#E63B2F;stroke-linecap:round;stroke-linejoin:round;stroke-miterlimit:10;}
	.st2{fill:none;}
</style>
<g id="Outline_Icons">
	<g>
		<path class="st0" d="M1.5,13.5h19c-0.6,4.6-4.5,8-9.1,8h-0.9C6,21.5,2.1,18.1,1.5,13.5z"/>
		<rect x="7.5" y="21.5" class="st0" width="7" height="2"/>
		<path class="st1" d="M7.9,6.5c1.4,2.5-2,4.5-0.3,7"/>
		<path class="st1" d="M9.7,6.2c1.9,2.7-1.8,4.7-0.1,7.3"/>
		<path class="st1" d="M11.5,6c2.3,2.8-1.7,4.8,0.1,7.5"/>
		<path class="st1" d="M13.6,13.5c-1.8-2.7,2.2-4.7-0.1-7.5l-0.3-0.3"/>
		<line class="st1" x1="21.9" y1="4.5" x2="3.1" y2="7.1"/>
		<line class="st1" x1="21.6" y1="0.5" x2="3.4" y2="5.7"/>
	</g>
</g>
<g id="invisible_shape">
	<rect class="st2" width="24" height="24"/>
</g>
</svg>
