<?xml version="1.0" encoding="utf-8"?>
<!-- Generator: Adobe Illustrator 21.0.2, SVG Export Plug-In . SVG Version: 6.00 Build 0)  -->
<svg version="1.1" id="Layer_1" xmlns="http://www.w3.org/2000/svg" xmlns:xlink="http://www.w3.org/1999/xlink" x="0px" y="0px"
	 viewBox="0 0 24 24" style="enable-background:new 0 0 24 24;" xml:space="preserve">
<style type="text/css">
	.st0{fill:none;stroke:#E63B2F;stroke-linecap:round;stroke-linejoin:round;stroke-miterlimit:10;}
	.st1{fill:none;}
</style>
<path class="st0" d="M20,20.5c0,1.1-0.9,2-2,2H6c-1.1,0-2-0.9-2-2v-8h16V20.5z"/>
<line class="st0" x1="6" y1="22.5" x2="6" y2="23.5"/>
<line class="st0" x1="18" y1="22.5" x2="18" y2="23.5"/>
<path class="st0" d="M8,4.5h12v4c0,1.1-0.9,2-2,2h-8c-1.1,0-2-0.9-2-2V4.5z"/>
<path class="st0" d="M8,4.5v-2c0-1.1-0.9-2-2-2H1"/>
<polyline class="st0" points="9,16.5 9,15.5 15,15.5 15,16.5 "/>
<line class="st0" x1="11" y1="4.5" x2="11" y2="10.5"/>
<line class="st0" x1="14" y1="4.5" x2="14" y2="10.5"/>
<line class="st0" x1="17" y1="4.5" x2="17" y2="10.5"/>
<g id="invisible_shape">
	<rect class="st1" width="24" height="24"/>
</g>
</svg>
