<?xml version="1.0" encoding="utf-8"?>
<!-- Generator: Adobe Illustrator 21.0.2, SVG Export Plug-In . SVG Version: 6.00 Build 0)  -->
<svg version="1.1" id="Layer_1" xmlns="http://www.w3.org/2000/svg" xmlns:xlink="http://www.w3.org/1999/xlink" x="0px" y="0px"
	 viewBox="0 0 24 24" style="enable-background:new 0 0 24 24;" xml:space="preserve">
<style type="text/css">
	.st0{fill:none;stroke:#E63B2F;stroke-linecap:round;stroke-linejoin:round;stroke-miterlimit:10;}
	.st1{fill:none;}
</style>
<g>
	<circle class="st0" cx="12" cy="14.7" r="2.2"/>
	<path class="st0" d="M8.5,20.5c0-1.9,1.6-3.5,3.5-3.5s3.5,1.6,3.5,3.5"/>
</g>
<g>
	<g>
		<circle class="st0" cx="17" cy="4.7" r="3.7"/>
	</g>
	<path class="st0" d="M12,11.2c1.1-1.6,2.9-2.7,5-2.7c3.3,0,6,2.7,6,6l0,0"/>
</g>
<g id="New_icons_1_">
</g>
<g id="Invisible_Shape">
	<polyline class="st1" points="0,24 0,0 24,0 24,24 	"/>
</g>
<g>
	<g>
		<circle class="st0" cx="7" cy="4.7" r="3.7"/>
	</g>
	<path class="st0" d="M1,14.4L1,14.4c0-3.3,2.7-6,6-6c2.1,0,3.9,1.1,5,2.7"/>
</g>
<g>
	<circle class="st0" cx="4.3" cy="17.4" r="2.2"/>
	<path class="st0" d="M0.8,23.2c0-1.9,1.6-3.5,3.5-3.5s3.5,1.6,3.5,3.5"/>
</g>
<g>
	<circle class="st0" cx="19.7" cy="17.4" r="2.2"/>
	<path class="st0" d="M16.1,23.2c0-1.9,1.6-3.5,3.5-3.5s3.5,1.6,3.5,3.5"/>
</g>
<g>
	<circle class="st0" cx="48.1" cy="23.4" r="2.2"/>
	<path class="st0" d="M48,29.2h-3.4c0-1.9,1.6-3.5,3.5-3.5c1.9,0,3.5,1.6,3.5,3.5h-3.4"/>
</g>
<g>
	<g>
		<circle class="st0" cx="53.1" cy="14.3" r="3.7"/>
	</g>
	<path class="st0" d="M48.1,20.7c1.1-1.6,2.9-2.7,5-2.7c3.3,0,6,2.7,6,6h-2.5"/>
</g>
<g id="Invisible_Shape_1_">
	<rect x="36.1" y="9.6" class="st1" width="24" height="24"/>
</g>
<g>
	<g>
		<circle class="st0" cx="43.1" cy="14.3" r="3.7"/>
	</g>
	<path class="st0" d="M39.6,24h-2.5c0-3.3,2.7-6,6-6c2.1,0,3.9,1.1,5,2.7"/>
</g>
<g>
	<circle class="st0" cx="40.4" cy="25.8" r="2.2"/>
	<path class="st0" d="M40.3,31.6h-3.4c0-1.9,1.6-3.5,3.5-3.5c1.9,0,3.5,1.6,3.5,3.5h-3.4"/>
</g>
<g>
	<circle class="st0" cx="55.8" cy="25.8" r="2.2"/>
	<path class="st0" d="M55.7,31.6h-3.4c0-1.9,1.6-3.5,3.5-3.5c1.9,0,3.5,1.6,3.5,3.5h-3.4"/>
</g>
<g>
	<circle class="st0" cx="-18.6" cy="17.3" r="2.2"/>
	<path class="st0" d="M-18.7,23h-3.4c0-1.9,1.6-3.5,3.5-3.5S-15,21.1-15,23h-3.4"/>
</g>
<g>
	<g>
		<circle class="st0" cx="-13.6" cy="7.2" r="3.7"/>
	</g>
	<path class="st0" d="M-18.6,13.7c1.1-1.6,2.9-2.7,5-2.7c3.3,0,6,2.7,6,6l0,0"/>
</g>
<g id="Invisible_Shape_2_">
	<rect x="-30.6" y="2.5" class="st1" width="24" height="24"/>
</g>
<g>
	<g>
		<circle class="st0" cx="-23.6" cy="7.2" r="3.7"/>
	</g>
	<path class="st0" d="M-29.6,17L-29.6,17c0-3.3,2.7-6,6-6c2.1,0,3.9,1.1,5,2.7"/>
</g>
<g>
	<circle class="st0" cx="-26.2" cy="20" r="2.2"/>
	<path class="st0" d="M-26.4,25.7h-3.4c0-1.9,1.6-3.5,3.5-3.5s3.5,1.6,3.5,3.5h-3.4"/>
</g>
<g>
	<circle class="st0" cx="-10.9" cy="20" r="2.2"/>
	<path class="st0" d="M-11,25.7h-3.4c0-1.9,1.6-3.5,3.5-3.5s3.5,1.6,3.5,3.5h-3.4"/>
</g>
</svg>
