<?xml version="1.0" encoding="utf-8"?>
<!-- Generator: Adobe Illustrator 21.0.2, SVG Export Plug-In . SVG Version: 6.00 Build 0)  -->
<svg version="1.1" id="Layer_1" xmlns="http://www.w3.org/2000/svg" xmlns:xlink="http://www.w3.org/1999/xlink" x="0px" y="0px"
	 viewBox="0 0 24 24" style="enable-background:new 0 0 24 24;" xml:space="preserve">
<style type="text/css">
	.st0{fill:none;stroke:#E63B2F;stroke-linecap:round;stroke-linejoin:round;stroke-miterlimit:10;}
	.st1{fill:none;}
</style>
<g id="Outline_Icons">
	<g>
		<circle class="st0" cx="10.6" cy="13.4" r="2"/>
		<line class="st0" x1="3.5" y1="17.6" x2="6.4" y2="20.5"/>
		<path class="st0" d="M20.8,0.7l-4,4l0.5,0.5l-4,4c-2.8-2-6.2-0.6-6.5,2.5c-6.2-1.3-8,5.5-4,9.5c4.1,4.1,10.8,2.1,9.5-4
			c3-0.3,4.5-3.7,2.5-6.5l4-4l0.5,0.5l4-4L20.8,0.7z"/>
		<line class="st0" x1="18.8" y1="0.7" x2="19.8" y2="1.7"/>
		<line class="st0" x1="17.3" y1="2.2" x2="18.3" y2="3.2"/>
		<line class="st0" x1="23.3" y1="5.2" x2="22.3" y2="4.2"/>
		<line class="st0" x1="21.8" y1="6.7" x2="20.8" y2="5.7"/>
	</g>
</g>
<g id="Invisible_Shape">
	<rect class="st1" width="24" height="24"/>
</g>
</svg>
