<?xml version="1.0" encoding="utf-8"?>
<!-- Generator: Adobe Illustrator 21.0.2, SVG Export Plug-In . SVG Version: 6.00 Build 0)  -->
<svg version="1.1" id="Layer_1" xmlns="http://www.w3.org/2000/svg" xmlns:xlink="http://www.w3.org/1999/xlink" x="0px" y="0px"
	 viewBox="0 0 24 24" style="enable-background:new 0 0 24 24;" xml:space="preserve">
<style type="text/css">
	.st0{fill:none;stroke:#E63B2F;stroke-linecap:round;stroke-linejoin:round;stroke-miterlimit:10;}
	.st1{fill:none;}
</style>
<polyline class="st0" points="3.5,10 3.5,23.5 9.5,23.5 9.5,16.5 14.5,16.5 14.5,23.5 20.5,23.5 20.5,10 "/>
<polyline class="st0" points="0.5,13 12,0.8 23.5,13 "/>
<polyline class="st0" points="29.3,4 33.8,4 33.8,8.7 "/>
<rect x="6.1" y="10.4" class="st0" width="4.5" height="3.5"/>
<rect x="13.4" y="10.4" class="st0" width="4.5" height="3.5"/>
<g id="invisible_shape">
	<rect class="st1" width="24" height="24"/>
</g>
<g id="Outline_Icons_1_">
	<g>
		<polyline class="st0" points="42.7,19.3 42.7,29.3 48.7,29.3 48.7,22.3 53.7,22.3 53.7,29.3 59.7,29.3 59.7,19.8 		"/>
		<polyline class="st0" points="39.7,18.8 51.2,7.3 62.7,18.8 		"/>
		<polyline class="st0" points="55.2,8.3 58.7,8.3 58.7,11.8 		"/>
	</g>
</g>
<line class="st0" x1="4.6" y1="23.5" x2="18.5" y2="23.5"/>
</svg>
