<svg xmlns="http://www.w3.org/2000/svg" width="10" height="10" viewBox="0 0 12 12" fill="none"><path fill-rule="evenodd" clip-rule="evenodd" d="M6.69376 5.99976L10.8563 10.1623C11.0479 10.3539 11.0479 10.6645 10.8563 10.8561C10.6647 11.0476 10.3541 11.0476 10.1626 10.8561L6 6.69352L1.83744 10.8561C1.64587 11.0476 1.33526 11.0476 1.14368 10.8561C0.952106 10.6645 0.952106 10.3539 1.14368 10.1623L5.30624 5.99976L1.14368 1.8372C0.952106 1.64562 0.952106 1.33501 1.14368 1.14344C1.33526 0.951862 1.64587 0.951862 1.83744 1.14344L6 5.306L10.1626 1.14344C10.3541 0.951862 10.6647 0.951862 10.8563 1.14344C11.0479 1.33501 11.0479 1.64562 10.8563 1.8372L6.69376 5.99976Z" fill="#231F20" stroke="#231F20" stroke-width="0.75"></path></svg>