<?xml version="1.0" encoding="utf-8"?>
<!-- Generator: Adobe Illustrator 21.0.2, SVG Export Plug-In . SVG Version: 6.00 Build 0)  -->
<svg version="1.1" id="Layer_1" xmlns="http://www.w3.org/2000/svg" xmlns:xlink="http://www.w3.org/1999/xlink" x="0px" y="0px"
	 viewBox="0 0 24 24" style="enable-background:new 0 0 24 24;" xml:space="preserve">
<style type="text/css">
	.st0{fill:none;stroke:#E63B2F;stroke-linecap:round;stroke-linejoin:round;stroke-miterlimit:10;}
	.st1{fill:none;}
</style>
<g id="Outline_Icons">
	<g>
		<path class="st0" d="M14.3,4.1c0,2-3.6,6.4-3.6,6.4S7,6.1,7,4.1s1.6-3.6,3.6-3.6S14.3,2.1,14.3,4.1z"/>
		<circle class="st0" cx="10.7" cy="4.1" r="1.4"/>
		<path class="st0" d="M22.9,10.8c0,1.8-3.3,5.7-3.3,5.7s-3.3-3.9-3.3-5.7c0-1.8,1.5-3.3,3.3-3.3C21.5,7.5,22.9,9,22.9,10.8z"/>
		<circle class="st0" cx="19.7" cy="10.8" r="1.2"/>
		<g>
			<path class="st0" d="M8.8,15.3c-0.4,2.2-4.1,6-4.1,8.2c0-2.2-3.6-5.6-4.1-8.2c-0.5-2.5,1.1-4.8,4.1-4.8
				C7.6,10.5,9.2,12.7,8.8,15.3z"/>
			<circle class="st0" cx="4.7" cy="14.4" r="1.9"/>
		</g>
		<line class="st0" x1="11.6" y1="12" x2="16.5" y2="15.3"/>
		<line class="st0" x1="7.2" y1="22.3" x2="17.2" y2="17.7"/>
	</g>
</g>
<g id="invisible_shape">
	<rect class="st1" width="24" height="24"/>
</g>
</svg>
