<svg id="Layer_1" data-name="Layer 1" xmlns="http://www.w3.org/2000/svg" viewBox="0 0 396.25 300"><defs><style>.cls-1{fill:#78cdd1;}.cls-2{fill:#e63b2f;}</style></defs><title>Artboard 1</title><path class="cls-1" d="M1.44,289.21l-.3-.51-.51-.3-.3-.51.2-1.42-.1-.71-.3-.51.4-1.72-.1-2.33.3-1.11.3-.41-.51-.51-.2-1.11.4-1.92-.4-1.11.1-.61.41-.3-.71-1,.2-1.21.1-4.85.41-1-.1-.61-.61-.81.5-1.72.1-1-.2-1.21.4-1.92-.1-2.63L1.74,255l.4-.1-.3-1.21.91-.71V251.7l.71-2.53,1.31-1.92,1.32-1.11V245l.61-.2.81-.71.81-2,1-.71.71-.1.51-1.52,2.83-.91.51-1.11L16,236.63l-.2.91.71-.1.41-.41.2-.61.81-.1.71-1,.71-.1,1.72.4.2-.3v-.61l.41.2-.1.61,1.11-.41-.51-.4.91-.61,2.33-.41.61.1,1,.71.81-.91,1.21-.3h2.53l.51-.2,1,.61,1.42-.1v.61l1-.4h1.11l2.53.4h1.52l.1.51.4.4.71-.61,2.23,1.11.4.41h.81l1,.5.1.61H48l1.82,1.52,3.13,2v.91l.61.1,1.31,1,.71,1.52h.61v.51l.71.71,1.31,2,1.62,4.15.61.3,1,4.65.4,3.44.3,9.6v4.35l-.61,1.32.71.91.81,1.92.51.4.61.1v.61l.61.71.3-.3.2-1,.51-.1.51.3.1.51.3-.2-.1-.51h4.75l1.82-.2.71.91.4-.71,3.94.4.1.71.41.51.91.61-.81,1.72-.1.71,1.11.61-.3,1.82-.81.81.4.4.71.3-.3.51-.61.2.61,1,.51,1.72-.4,1.21.3,1.21-.1,1.92.2.61-.71.71.3,1.11-.4,1.11-1.42.71-1.82.1-1.21.41-.71-.41-3.34.2-.91-.41-2.53.41H66.06l-1.92-.41-3.34.41-2.42-.3-1.11.3-.2-.61-.4.3-1,.1-1.21-.2-2.33.41-1.21-.41-1.21.41-4.65-.3-1.42.1-.91-1.11-1.32,1.11-.61-.1-1.52.2-2.33-.71-3,.4.2-.51-2.23.51-5.66.2-.1-1.11-.61.2-.91.91-2.63-.1-3.54.51-.4-.41-1.32.2-.71-.61-.71.4-1-.4-.71.4-2.42-.2-2.93.3-.61-.3-1.11.3-1.92-.1-.1-.5-.4-.2-.51.41-1.21.1-1-.71-.3-.51v-1.42l.61.1.2-.4H.53l-.2-1.32.2-.61-.3-1.21.61-3.64Zm73.92,9.4v-.4l-.61-.2v.61Zm-51.88-1v-.3h-.4v.3Zm-1.92-.71v-.61l-.3.61Zm30.13-.71-.1-.61-.51-.2-.2.61ZM13.17,295v-.3l-.4-.2-.1.51Zm46.11-.51-.3-.61H58l.2.71.61.2Zm-40.35-.2.61.4.5-.2.41-.51.1-.61L20,293l-.91.71Zm20-.41-.51-.2-1.92-.1v.71l.71.2,1.31-.3Zm-11.93.2v-.61l-.4-.71-.81.51-.1.61.51.3Zm17.9-.91-.61-.1-.61.3-.1.71.61.1.4-.4Zm17,.41v-.41l-.4.2.2.41Zm-38.63,0V293h-.61v.61Zm-5.66-.2V293h-.3v.4Zm15.17,0,.61-.4-.81-1.52-.3.41.1,1.21ZM54.22,292l-.51.1v.61l.51-.1Zm-32.66.51.2-.41-.2-.5-.51.2v.61Zm3,0v-.3h-.41v.3Zm6-.91-1.32.2-.2.71.71-.1.51-.3Zm5.36,0,.71-.3.3-.61-.4-.3-.61-.1-.1.71Zm3.44,0-.1-.51-.3-.2-.2.71Zm-11.22-.2-.1-.51-.3-.2-.2.2v.41Zm-9-1.11-.51-.1-.81.91.61-.1.41-.3Zm6.57.61-.2-.61-.71-.2-.2.61.5.3Zm16.79-.2.1-.51-.3-.2-.41.1v.4Zm10.31,0v-.61l-.41.2-.2.4Zm-39.44-.2.61-.2-.2-.61-.41-.3-.1.61Zm36.4-.2-.2-.51h-.71l.3.61Zm-9.1-.3.2-.4-.1-.4-.51.3Zm-30.84-.4.91-.51.41-1-.71.1-.51.3-.3.51Zm22.45,0-.1-.51-.3-.2h-.61v.71Zm17.9,0V289h-.61v.4Zm20.73-.4-1-.3v.71h.71Zm-47.83,0-.4-.1-.3.3.4.1Zm7.28,0-.3-.51-.51-.3-.71-.1-.2.61,1.21.51Zm-9.91,0-.3-.51-.4.3Zm17.9-.51-.71-.41-.2.71H38Zm-20.83,0v-.51l-.4-.51-.71-.1-.41.51.91.41Zm17,0,.81-.51.1-.61-.51-.1-.61.2v.61ZM8.92,287.9h-1v.61l.71-.1Zm64.72.61v-.41h-.3v.41Zm-10.42-.41-.3-.51-1-.61-.2.61.91.51ZM24,287.7l.1-.61-.41.3Zm-11.53-.3V287l-.4-.2-.2.61Zm8.19-.2v-.91l-.61.3-.3.61Zm9.91,0,.4-.4.1-.71-1-.41h-.61l.61,1.11Zm-11-.2-.2-.81-.5.1V287Zm19.62,0,.51-.1v-.61l-.61.2Zm-2.12-.2.2-.41-.2-.5-.71.61Zm11.63-.71-.51.1-.1.61.51-.1Zm-39,.4-.2-.61-.71-.2.1.61.3.3Zm18.71-1-1.92-.3-.3.5.51.41,1.32-.2Zm17.9.41v-.61l-.4.61ZM34.5,284.76l-.71-.2-.51.3-.3.61.41.3h.51l.4-.4Zm8.59.2-.2.71.51-.3Zm11.93.71v-.4h-.41v.4Zm-4.65-1.52-.51-.3-.3,1.42.61-.1.3-.51Zm-34,1v-.61H15.8v.61ZM41,284.36l-.2-.4-.51-.1-.4,1.32,1-.3Zm-27.61,0-.51-.3-.61.2-.2.71,1.11-.2Zm9,.61.51-.3v-1.21l-.51.3-.1.61Zm9.5-.2h.4l-.3-.4-.3.2Zm-11-1.31-.51-.2-.71.1-.3.51h1.32Zm26.09.4v-.61l-.3.61Zm20.73,0v-.4h-.3v.4Zm-59.56-.2v-.4h-.3v.4Zm17.6-.81-.61.1-.2.51.51.2.4-.2Zm-11,.2v-.51l-.4.51Zm39.74-.51-.4-.3-.71-.1-.2.61,1,.2Zm-12.13,0-.71.3h.51ZM24,281.73l-.2.81.51-.3Zm8.09.81-.1-.61-.51-.2v.61Zm19.62-.81H51l-.5.61.5.2.61-.2Zm-46.31.61v-.4H5v.4Zm42.88-.2.61-.2.2-.51-.81-.4-.1.61Zm-30-1.52-.61.1-.1.71.51-.2Zm-2,.61.3-.61-.1-.61-.61-.3-.2.51.1.71Zm38.83,0,.5-.2.2-.51-.2-.4-.5.2-.2.4ZM6.69,279.5l-1,.3-.2.51h.71l.41-.3Zm46.11,0-.81-.3-.2.41v.71l.71-.2Zm-34.38-8.9.71.71.3,1.32-.61,2,.5.81-.2.71,1,1.21.1.61,2.12.81.3.4.91-.61H25.3l-.3.51.2.51.51.3.3-.5-.1-.51.3-.3,1,.71.2-.51.51-.2h.71l.3.91.51.2.71-1,.61-.3.2,1.31.91-.81,1.82-.51,1.21.3.51.3,1.72-.61H39l1.11.4.61-.3.91.51L43,276.37l.61-.2-.51-2.53-.2-4.85.3-4.15L42.39,262l.1-.61-1.11-1.72V259L40,257.26l-2.73-1.92-2.43-.71-1.42-.1-1-.51-1.32.1-.2-.61-.51-.3-.71,1.11H28.13l-.2-.71-1.11.51-1.92,1.52-1.82.71-1.32,2.22-1.11.61-.71,2.23.1.81-.71.1.3.61-1,1.72v.51H19l.51-.4-.2,3.23-.71,2Zm-4.65,8.9V279h-.61v.3ZM69.19,279h-.5v.51Zm-19,0-.2-.51h-.51l-.2.51.3.1Zm-3-1.11-.3,1.11.51-.2.2-.51ZM10,278.8l-.3-.4-.3.4Zm49,0,.2-.51-.2-.3-.51-.1v.71Zm-4.65-.91-.2-.71-.71-.1.1.61.3.3Zm-2.93-1-.3-.51-.71-.2-.1.91.51.1Zm-39.84-.51-.51-.4v.61Zm46.11-1.31-.1.91.5-.2v-.41Zm-3.54.4.51-.2.2-.51-.1-.4-.51.2-.2.4Zm-39.54-.2.51.1-.1-1-.51.3Zm37.92-1.11-.81.91.71.1.4-.51Zm-2.43-.81-.61.2-.51.91.61-.1.3-.41Zm-44.09-.91-.41-.2-.3.2.4.2Zm47.63-3.34-.2-.61-.61-.3-.71.1-.4.4,1.32.2ZM6.09,266.46H5.38l.3.5Zm38.22-.2v-.5l-.51.5Zm4.75-.71-.2-1.11-.51.2.1.71Zm-4.55-4.85h-.3v.51Zm-32.66.3-.2-.4-.51-.1.2.41ZM14,258.78v-.3h-.41v.3ZM17.52,257l.1-.4L17,256l-.1.51Zm31.75,0h.5l-.1-.71-.61-.2v.51Zm-41.16-.81-.2.61.4-.2Zm12.14.4-.3-.4-.4.2Zm-4.85-.71-.2-.61-.71-.2v.61l.4.1Zm-2.93-.4-.1-.61-.51-.1.2.5ZM48.26,253l-.2.51v.81l.71-.2v-.71Zm-31.85.61-.61-.2-.4.3.61.2Zm30.44-.4v-.61h-.61L46,253Zm-2.63-.61-.51-.81-.61-.1-.2.61.3.51.51.2Zm-9.91.2.2-.51-.61-.2Zm-23-.51-.2-.51-.61-.1.3.61Zm39.13-1.72-.51.3v1.21l.51-.91Zm2.42.91H52.1l-.61-.2-.2.61,1.32.1Zm2.63.2v-.4h-.71v.4Zm-15.27-.2.71-.3-.3-.3-.61-.1Zm-21.84-.2-.2-.51-.71-.2.2.61Zm8.8-.51.3-.4-1.11.2Zm-2.83-.2.2-.91-.71-.2-.3.41.2.4Zm11.53-.51-.71.1.41.2Zm18.1.3v-.51h-.51v.51Zm-43.28-1.62-.91.3-.3.4-.1.61,1.11-.61Zm9.71,1.32.4-.4-.2-.61-.3.4Zm24.47,0,.51-.2.1-.61-.61.1-.2.51Zm-32.16-.61v-.4l-.3-.2-.2.61Zm18.51,0,.4-.2-.2-1.11-.71.2-.41.51.51.3Zm2.22-.4-.1.4h.4Zm15.57.2-.5-.51.1-.2-.4.51Zm2.63-.2-.3-.51-.61-.2-.4.4.61.41Zm-23.56-1.31-.41.2-.2.4.51-.1Zm17,.2.4-.51.3.3-.3.61.91-.4-.3-1.11-.41-.1-1.42.3.2.71Zm-8.09.2v-.51h-.51l-.2.51Zm20.73-.4-.51.1-.2.3ZM35,246.84l-.51.3-.2.51.61-.2Zm-11,.61v-.81l-.71.2-1.11-.4.2.61.91.4Zm19.82-1-.3-.3-.61-.1-.4.3-.2.5.61.2.71-.1Zm-2.43,0v-.3l-.4-.2-.3.51ZM34.3,245l-.3-1-.4-.3H33l-.2.61.2.4.51.3Zm2.23-.4-1.11-.41-.61.1-.3.3,1.11.4h.61Zm17.7.4v-.4h-.3v.4ZM24.6,243.91l-.61-.1-.3.4.61.2Zm14.56.1.51-.1.2-.41v-.61l-.61.2-.3.4ZM22,243.91l-.2-.61h-.51l.1.51Zm20.53-.61-1,.1-.1.51h1Zm-13.65-.71-.41-.3-.71-.1-.4.4.51.4.61.1Zm16.79.3.51-.1.1-.61-.61.2Zm-2.43-1.62-.3,1.11.71-.2.1-.61ZM10,242l-.4-.1v.3Zm15.47,0v-.41H25.1V242Zm9.91,0-.2-.51-.51-.3H34.2l-.3.4.91.41Zm-3.13-.2-.1-.51-.3-.2-.1.51Zm6.68-.71-.1-.71-.51-.2-.51.3-.2.61.71.2Zm-15.67-.2-.3-.4-.3.4Zm18.51,0-.2-.61-.91-.1-.2.51.61.1Zm-14.56-.2.4-.4.1-.71-.4-.3-1.42-.1.71,1.21Zm8.39-.91-.71-.1-.4.51.4.3.51-.1Zm-11.63.4.1-.51-.61-.3V240Zm24.47-1-.51.41.4.2Zm-15.88.41,1.11-.41.2-.5H32.38l.1.5Zm-1.52-.91-.61-.3-.71.1-.3.61.51.3.71-.2Z"/><path class="cls-1" d="M1.23,219.43l-.3-.4-.61-.1.3-2.33-.2-5.26.3-2.43.91-2.12.41-.41,1.21-.1.4-.3,3.34.51,4.75-.51,1,.2h1.82l.71-.2.2.61.3.3.61.2V206l1.21.3,1,.51.41-.61.61.3,1.82-.2,1.11.3.91-.3,4.85.1,2.33-.3.51.2.3.51,1.92-.81.61.3,2,.1.51.41.4-.3,1.82-.3.61.2.4.41L42,206H43.1l1.11.61.71-.81,1.31.3,2.33-.3.91.4.3-.4,1.11-.3.2-.61h.71l1.21-.41L57,202.24l.91-1.82,1.11-.2,2.23-6.78.2-2,.71-.2-.4-.3H61.2l.2-.71V189l-.2-.61v-1.11l.2-.51-.4-.51L60.49,185l.1-.71-.3-1-2.13-2.73.1-.81-.3-.4-.1-.61-1.32-.2-1.92-1.52.41-.91-.51-.2h-.71l-1.32-.4-.4-.51v1.11l-2.23-.91-3.54-.81-.41-.3-1.11.51-.51-.3-2.12-.2-1.92-.4-.71.51-.71-.2-.4-.5-.51.3.1.61-1.31.1-1.32-.3-.2-.91-.61.1-1,1.21-1.32-.51-.81.3-.71-.2-.91.4-.41-.4-2,.4-1.11-.51-.71.2-3,.1-.81.4-2.22-.4-3.24-.1-.3-.2-.91.71-2.43-.4H9.53l-.4.4-.61-.3-1.82.2-.51-.1-.4-.4-1.11.61-3-.91-.81-1-.3-1.11.1-3.74-.2-1.11-.3-.51.4-1.31-.2-3,.71-.51-.41-1.11.1-1.11-.4-1.11.71-1-.51-1.32,1.72-1.62,1.11-.61,1,.3h5l1.11.3,3.34-.61.1.51-.3.51.51.1,1.21-.91h4.45l1.31.2.91-.61.81.61.61-.2,2.53.1,1.72.71.2-.81,1.11.81.51-.3.2-.71,1.11,1.11.81-1.11h.71l-.2,1.32,2.23-1.11.61.3.2.61.51-.41.4-.71,1.72.3h2.53l1.11.51.51-.2.3-.41,1.11.1,1.92-.4.61.1.4.3.2.51.41-.3,1.82.1.81-.41,1,.51.61,1,.4-1.11,1.21.3,1.42-.1.51.81.61.1v-.61l5.36,1.92.2.71,1-.2.71.61h.91L65.14,159l1.32.61.51.91h.81l1.11,1.32.71-.2.81.71,1.21,2.13.81.71v.71h1.31v1.11l1.82,1.62.81,1.52v.61l.91,1.42-.2.71,1.11.71-.1.81-.3.51.81.81.3.61.2,1.21-.2.71,1.31.91-.3.81.71,1.11.1,1.32.51,2.33-.1,1-.3.61.3.51.3,1.21-.2,5.06.1,1.72-.71,2.33V200l-.51,1.21-.51,2.23-.81.91.1.71-.2,1.11L76.77,210l-.1.61-1.52,1.92-.51,1.31-1.52.71-.51,1.21-1.72,1.72-2.43,1-1.11,2.23-.61-.1-.71-.61-.2.61.2.71-2.23,1.32H62.72l-1.52,1.21H59.88l-.71.61-.71-.2H56.75l-.71.81-1.62.51-2.53.3-1,.4-.3-.51-1.21.1-.71.61-.61-.1-.91-.61-.5-.91-.41.41.3,1,.3.41-.71-.2-1.11.1-.4-.4-3.74.71-2.53-.3-.51-.3-1.11.61-.91-.61-.91.41-.5-.2-2.43.1-2.43.51H28.34l-1.72-.61-.61.2-1-.41-3.74.71-1.11-.2-.4-.3-.91.4H16.91l-.51.2-1.11-.3-2.43-.1-4.65.4-1-.4H3.46l-.91-.51-.91.1-.4-.3-.61-2.13-.1-2.53-.4-1.11.2-.61.51-.1Zm41.86,4.15-.61-.2-.51.4.4.3h.51ZM57.66,223l-.3.2L57,223v.61l.81-.1Zm-41.06.41-.3-.41-.3.41Zm1.11,0,.71-.2-.2-.5h-.71Zm17-.61v-.51l-.4.1-.2.4Zm-2.22-1.31-.2-.41-.61-.1-.3.4.41.2Zm14.86-.91-.41.2-.1.4.4-.1Zm2.63.61-.71-.2v.2Zm-20.33-.61v-.3h-.4v.3Zm6.68-.5-.3-.41-.81.71.71.2Zm-3.54.2.61-.1.2-1.11-.61.2-.3.51Zm20.73,0v-.61l-.4.2-.1.41Zm-10.82-.61v-.71L42,219l-.4.4.51.4Zm-12.34-1.72-.5.2v.61l.61-.2Zm9.71-.71-.51,1.52h.61l.4-.4v-.71Zm10.52,1.32v-.4h-.4v.4Zm17-.2-.1-.61-.51-.1-.2.51ZM46.84,217l-.71-.1-.51.4-.3.61.71.1.51-.4Zm-9-.2-.61.2-.1.81.61-.2Zm19.82,1v-.41h-.41v.41ZM25.2,217.4V217l-.4.2.2.41Zm-8.29,0V217h-.3v.4Zm46-.4-.3-1.11-.51-.2-.2.81.61.2Zm-18.71-1.11h-.51l-.41.3-.2.61.61.1.4-.3Zm-2.63-.51-.51.2v.71l.71-.3Zm8.59.51-.2-.41-.51-.1v.51Zm9.2-.51-.61.3.51.2Zm8.7.1V215l-.3.5Zm-32.26-.3.51-.2.2-.51-.1-.51-.4-.3-.3.3-.1.71ZM48,214.57h-.61l-.3.61h.51ZM33.19,215l.71-.91-.41-.3-.71-.1v.71Zm12.13,0v-.61h-.51V215Zm21.13,0v-.41l-.61-.4-.2.61Zm-52-.41,1.52-.2-.3-.51-.61-.3-.61.1-.3.3Zm38.83-.4-.3-.71-.1.51Zm-10.82-.71h-.81l-.61.2.51.3h.61Zm20.73.2-.3-.51-.61-.2v.91h.61Zm-23-.91h-.51l-.1.71.4.2.3-.2Zm17.8.51-.2-.61-.61-.1-.2.71.51.2Zm3.13-.51-.61-.1-1.11.61,1.11.2.51-.2Zm-33.07-1-.51.2-.2.41V213l.71-.1.2-.5Zm18.91.2-.51.2-.1.81.61-.2Zm-25.38.61.3-.81-.5-.1-.2.5Zm32.66-.41-.2-.61L53,211l-.1.61.3.4.61.2Zm-11,0,.51-.1v-.61H43.2l-.1.51Zm21-.5-.3.5.51-.2Zm-8.9.1-.3-.4-.3.4ZM41.79,211l-.2-.51-.61-.1-.51.2.3.4.51.2Zm20.73-.2-.2-.51-.51-.2-.61.2-.2.51,1,.2Zm-11.73-.71-.61.1-.2.41.61-.1Zm5.76-.91v.91l.51-.1v-.71Zm10.62.71-.4-1.11h-.41l-.3.41.5.4Zm-22-1.52-.51.91.61-.1.3-.41Zm-20.53.81-.51-.61v.61Zm17.9,0,.4-.81-.51-.2-.4.4Zm15.57-2.12-1-.2v.81l.71-.1Zm-17.8.4v-.4H40v.4Zm34.79-1.72-1-.1.1.61.61.1Zm-6.17-1.42-.61.1-.3.41-.1.61.61-.2.41-.4Zm2.73,1.11v-.4h-.3v.4Zm-12.13-.61v-.41h-.3v.41Zm6.78-.71v-.61h-.61V204Zm4.65-2.23-1-.51h-.5l-.3.51,1.31.4Zm-3-1-.61-.1-.4.51-.2.71,1.11-.51Zm-3.64-.51-.61.41.51.1Zm10-.61-.91,1,.51.1.81-.71Zm-3.54.4v-.4h-.4v.4Zm-1.11-.91-.2-.61-.71-.2-.41.41.81.1Zm-3.54-1.72-.61,1,.2.51.51-.4.3-.61Zm-2.23,0,.51-.3-.1-.61-.61.3Zm6.67-1.31-.2-.51-.71-.2-.41.4.91.51Zm-2.43-.91-1.11.1-.3.3.51.2.61-.1Zm9.2.2-.3-.51-.61-.1-.41.4.51.3Zm-2.83-1.11-1.11-.1-.2.4,1.11.1Zm-12.84-.81.51-.3-.51-.61-.2.51Zm13.25-1.11h.71l.2-.51-.61-.2-.51.41Zm-2.12-.71-.2-.51h-.71l-.2.51.61.2Zm-2.23-.2v-.51H70v.51Zm7-.71v-.4l-.4-.2-.2.61Zm-4.35-1.32.2.51.3-.3Zm-1.52-.4v-.61l-.51-.3H70.5l-.2.91.61.1Zm-2.22-1.52-.61.2L68.28,189H69l.41-.3.1-.4Zm6-.51-.51.1v.61l.51-.1Zm2.12.51v-.3l-.4-.2-.2.51Zm-10.72-.3-.3-.61-.61.2.51.2Zm6.37-.81-.2-.61-.71-.1v.71Zm-4.65-1.62-.61-.2-.4.4-.1.71.61-.1.4-.3Zm6.57-.81-.61-.3-.3.3-.1.61.61-.2Zm-9.4.2-.3-.5v.3Zm6.57-.91-.2-.51h-.51l-.41.3.51.1Zm-2-.2-.2-.51-1.11-.4-.2.3.61.1.4.3Zm3.34-2.43-1.31.61v.71l.71-.2.4-.41Zm2.43.61-.51-.2-.3.3.5.2Zm-11.63.1-.1-.61-.51-.1-.3.61h.5Zm-4-.71-.2-.51h-.5l-.2.51Zm7.48-.4h.91l-.2-1.32-.91-.1.1.61Zm2.73,0,.61-.2-.4-.71-.3.4Zm9.2-.2-.41-.71V180ZM65.45,179l-.2.4.1.3.3-.3Zm5.06,0,.51.2h.71l.61-.3.3-.51-.4-.4H71.11l-.4.4Zm-10-1.52v-.4h-.41v.4Zm6.47-.4-.1-.61-.51-.4h-.51l-.4.51,1,.61Zm-2.43-1.32-1,.3-.3.51.61.2.61-.3Zm6.17,0v-.4h-.4v.4Zm2.83-.4-.4-.3h-.51l-.2.51.71.2Zm-14.05-.91-.1-.3h-.61l-.4.3.61.3Zm6.57-.51-.1-.61-.3-.3-.61-.1-.51.2.2.61.4.4h.51Zm-3.54,0,.51-.4.2-.71-.61-.1-.81.2.1.71Zm9.91-.61-.1-.61-.4-.1-.4.2.3.4Zm-3.24-.2.3-.51.1-.81-1.52,1,.51.3Zm-21.94-.91-.1-.51-.3-.2-.2.71Zm10.21,0,.71-.2.41-.51-1.11-.81-.3.41.1.51Zm-2.93-.51.51-.3.61-.91-.51-.1-.51.3-.3.51Zm-17.6-.4-.2-.51-.51-.3-.2.61.4.2Zm23.86-.61h.71l.3-.3.1-.61-1.32.2ZM49.57,170v-1.31l-1.11.2.2.61.3.3Zm18.71-.71-1.82-.1.2.1v.51l1.32.1Zm-45.71.51v-.4l-.61-.1v.51Zm52.79-.4-.61-.1-.3.51h.61Zm-56.93.2V169l-.4-.3-.3.91Zm34.38-.3-.91-.2.4.51Zm-41.87.1v-.51l-.3.51Zm18.1-.1-.1-.81h-.81v.91h.51Zm27.5-.2.4-.4V168l-1-.41h-.51L55,168l.81.91Zm-38.63-.2-.1-.61-.41-.3h-.61l.1.61.3.3Zm26.7-.2v-.61H44v.41Zm-9-.2v-.41h-.71v.41Zm30.23,0v-.41h-.4v.41ZM53.52,168l-.51-.2-.61.1-.3.41,1.11.1Zm-21.44.3v-.51h-.61v.3Zm10.11-.91-.61-.3-.51.1-.2.81.5.2.51-.2Zm-27.5.71-.4-.4-.71-.3V168l.61.1Zm-2-1.11-.61-.3-.1.71h.51Zm11.43.4-.3-.4-1-.3v.51h.71Zm14.36-.71-.91-.4-.2.61.61.2Zm-30.24-.81-1.32-.3-.51.71-.1.61,1.52-.61Zm57.84.81.3-.61h-.91v.61Zm-39-.4.2-.91-.91-.2-.1.5.3.41Zm-3.34-.91-.2.71H24l.1-.51Zm21.84.2-1.11.1-.2.41,1.11-.1Zm9.51.3.2-.61-.2-.71h-.61l-.71.61.71.61Zm-42.57-.2.71-.91-.51-.51-.61.71-.1.61Zm51.88-.1.3-.51-.1-.51-.51.2v.51Zm-30.24-.61-.3-1.11-1.11.4-.2.51,1.11.2Zm24,0,.71-.1.4-.51.2-.71-.51-.1-1,.51v.51Zm-35-.2-.2-.71-.71-.2-.2.61.61.3Zm-3.54-.91-.71-.2v.81l.5-.1Zm7.08-.4-.4-.41-.71-.3-.2.91.61-.1.3.2Zm29.73.2-.4-.51v.3ZM18,162.9h-.71l.1.61h.51Zm10.31.3.71-.3-.1-.61-.81-.5-.2,1.11Zm-13.45-.1-.1-.71-.4-.3-.2.81Zm17.6-.4v-1.32l-.61.1-.1.51.2.51Zm20.83,0,.2-1-.3-.3L53,162.7ZM21.76,162l-.1-1-.51.3-.3.51.51.3Zm-3.34,0,.41-.41v-1.11l-.61-.2-.4.3-.1.61.2.51ZM57,161.38l.3-.61-.71-.3-.1.51Zm-21.54-.2v-.51h-.51v.3Zm6-.4.61.1.71-.2.4-.51v-.61h-.81l-.61.3-.3.4Zm-15.87-.1-.3-1.11-.61-.2.5.91Zm-5.36-.61.3-.41-.1-1.31-.51.2v1.21Zm2.83-.71-.51-.1-.3.61h.61Zm26.5.3-.2-.51-.61-.2.1.61Zm-14.77-.91-.1-.81-.41-.51h-.4v.51l.3.61Zm-17.59-.51-.71-.61-.2.61.5.3Zm6.17-.2.61-.81H23v.61Zm17.19-2.83v-.4l-.51-.1v.51Z"/><path class="cls-1" d="M30.36,75l1.72-.2,1.21.3,1,.51,1.11-.4,3.44.91.3.4,1.11-.2L43,77.54l2,1.21.2.4-.1.61.61-.1.2-.51,1.52,1.11.3.61.71.1L50,82l2.33,2.73L52.4,86l.61-.3,2.43,2.93.2.61.71-.2.61.4,1.21-.91.61.1L60.39,87l1.21-.4.51-1.11,1.52-.71.81-1h1.11l.2-.51.81-.81,2-1.21.81-.81.2-.61,1.92-.3.3-.51,1-.81.71-.91,1.32-.4,2.23-1.82.61-.2,2,1.11.2,2.43.4,1.11L80,81.28v7.48l-.3,3.44.61,1.31-.71,3.54-.51,1.11-.3.2h-.61l-.2.91-1.32,1-1.11.51-1.72,1.52-1.11.51-.1.61-.71.1-1.11.61-.61,1-.61.1L66.66,107l-.71.91-.71.4.1-.4-.5.1-.51-.3-.41.91-.4.4-.61.2-.41-.4-.61.3-.61,2-.81.61-.71-.81-.81.61.2.61-1,.2,1.11.71-.51,1.52v1.11l.2.61-.3.71-.61.3.61.41.3.71-.91,2.43.4.3.71-.1.2.61,1,.71,3,.91,1-.81.51.3h1.42l.51-.3.61.4h1.92l.4.3.2.61.61-.71.5-.2.41.61,1.11-.61,1.72-.1,3.54.3.3,1.32,1.11-.2.3.71.51,2.43L79,126.38l-.3.61.1.81.3.51.81-.4-.2,2.23.1,2.43.3,1.11-.81.2.51,1.62v2.23l.3,1.42-1,.3.81,1-.1.71-.71,1-.91.81-1.82.51H75.05l-1.21-.3-1-.51-.4.41-1,.2-.51.3-1.11-.91-.51.2-.61.71-1.92-.41-2.53-.2-.4.3-1.72.3L61.2,143l-.41.3-1.11.3-1.21-.1-2.33-.61-.51.3-.4.61-2.43-.51-.41-.3-1,.3-2.73.3-1.21-.2-1-.5-.3-.41-.51.2-.61.71-.51-.3-.3-.61-.71.91-1.21.2-2-.2-1.31.1-.51.3-2.73-.3-.4.3-1.11-.51H32.48l-1.11-.3-.51.3-1.21.3-2.22-.41-1.11.61-1.82-.41-1.11.1-.41.3L19.74,143l-1.62.81-.61-.91h-.4l-1.82.91-1.21-.51-2.33-.4-.61.1-.71.61-1.62-.3-2.43.3-.61-.1L4.88,143l-.91.51-.61.1L2,142.87H1.34L.73,141l-.2-1.21.1-1.31.51-1.11-.61-1-.2-1.32.4-.61L.33,134v-.51l.61-.91-.61-1.82.2-1.31.4-.41L.42,127.7l-.1-1.32.2-4.85-.3-1.11.3-.4.1-.71.3-.4L.42,118l-.1-.71.3-.61V116l-.3-.61.4-.51.61-.2L.73,113l.2-.61-.4-1.11v-3.74l-.2-1.11.3-.5.51-.3-.71-2.33v-1.42l.3-1.31.71-.91L.73,99l.71-2.12H2.75L1.44,95.74l.81-1,.3-1.11.2-2.43.2-.61L4.07,90l-.2-.91,1.31-2.63.61-.2L6,84.92l1.11.2.1-.71.61-1.11.91-.71.81-1,.2-.61.71-.1,1-.51,1.82-1.31,1.31-.3.41-.3.5-1,3.74-.71,1.11-.4.91-.71H22l2.33-.51,1.42.1.51-.3,1.92-.2,1.21.2.51.3ZM19.23,140l.51-.2v-.51l-1,.1-.1.61Zm30.64-.61V140h.51v-.4Zm6,.51.51-.81-.61.1-.51.81Zm-44.69-.1v-.51h-.51v.3Zm35.7-.71h-.41v.3h.41Zm-9.3-.51-.2.71.61-.1.1-.51Zm3,.51.3-.4-.51-.2-.41.4.2.4Zm-19.32-1.52.2.4.2-.2v-.41Zm-8.8-.3-.51-.1-.2.41.71.2Zm5.46-.91.2.4.51.2.1-.71-.61-.4ZM28,137l.1-.51-.3-.3-.61-.1L27,137Zm10.82-1.11-.61.2-.2.61.51.3.51-.3.3-.61Zm-28.92,1-.3-.4-.3.4Zm6.57-.4.2-.71-.3-.4-.61.91.2.61Zm43.18,0v.4h.4v-.4Zm7.08.3-.1-.3-.4.4Zm-30-1.32-.3.41h.51Zm-12-.4-.61-.1v.71h1l.1-.51Zm28-.51-.3-.51-1,.3-.3.4-.1.61,1.62.2.2-.4Zm-50.46.81.51-.2-.1-.2Zm7.48-.61.61.2.51-.3.3-.61h-.81l-.61.2Zm-1.32,0-.3-.4-.3.4Zm32.05-.61-.3.4h.5Zm-14.76-.3-.1.61.61-.2.1-.61Zm32.56-.81-.2.61.1.51.61.1V133Zm7.08.1-.61.1.1.71.3.3.81-.81.1-.51Zm2.83.3v.61l.4-.2.1-.61Zm-31,.2h.61v-.4l-.41-.1Zm-19.92-.3.51.1-.3-.51-.61.2Zm26.39-.61.2.51.41.2.3-.51-.1-.61-.51-.3-.4.1Zm10.11-.41-.2.61.1.51.51-.2.2-.51Zm-38.63.91v-.71h-.3v.71Zm5.66-.71.4-.2.1-.5h-.71ZM62.92,132v.3h.4V132Zm-44.09.1.2-.1v-.41l-.2-.2-.51.2.1.51Zm41.86,0,.3-.51-.61-.2-.3.61ZM7.5,132l.1-.61-.51-.2-.61.2V132Zm22.85-1h-.71v.61l1.21.41.51-.41Zm-20.93.2H8.82l-.2.4.91.2Zm57.84.1L67,131v.61Zm-9.3-.91-1.31.2-.51.4,1,.51,1-.2.3-.51Zm-9.2,1h.51v-.61h-.51Zm-31.55-.71-.2.3.71-.2Zm-1.52,0,.3-.61h-.51ZM55.33,130l-.3.51.61.1.4-.51Zm8.7-.1v.4h.4v-.4Zm-20.93-.41.2-.51-.61-.2-.4.61.4.51Zm-3.74.2.81-.3-.81-.2ZM59.48,129l.1-.61-.51.2-.2.51.3.3Zm-21.34,0,.1-.61-.61.2-.1.61Zm11.43-.4-.1.61.71-.2-.2-.61Zm17.7-.51-.4.3-.2.61.61.1.51-.3.2-.71Zm-18.81.3L48,128l-.51.1.2.51,1.11.4Zm-39.94.4.61-.2-.2-.61H8.41l-.4.4Zm48-1-.51-.3-.2.51.2.4.71-.1Zm-33.07-.61v.51l.51-.1.1-.4Zm37-.91-.51-.2-.51.1-.1.61.71.2.61-.2Zm-41.36.4.1-.61-.4-.2-.2.3v.61Zm22.65.1v-.41h-.71v.41Zm-24.17-1.21-.3.4h.61Zm-9.81.3-.1-.71-.61-.1-.2.81Zm-3.64-.4.51.3.5-.1-.1-.61-.3-.3H4.07Zm39.13-.4.2-.51-.51.2-.3.51Zm-20.73-.3-.2.3h.51l.3-.3Zm27.61-.1.3-.51-.1-.61-.71.2-.3.51.1.61Zm6.17-1-.51-.2-.2.5.4.41.51-.2Zm-9-.91-.2-.41-.5-.2v1.42l.81-.1Zm-32.56.5.1-.91-1,.71-.61.2Zm39.13-.61v.4h.4v-.4ZM40.17,109.29l.2-.61-.2-1.92.3-1.11-.4-.4L39.56,104v-1.32l.2-.61-1.82-3.24-1.72-1.62-1.11-.51-.81-1h-.81l-.61-.2-1-.71-6.17.4L21.26,99l-.2.61-1.31,2,.2,1.11-.51.3-1-.1v.51h1.21L19,104.74l.61.91-.4,1.11.2,2.43-.2,1.11.51,1.32-.3.51-.1,1.42.3.51-1,1.31.61.81-.2.71.3,1.92.1,2.53,2.23,1.52h6.88l1.11-.4,1.72.2h7.28L40,120.21l-.2-2.12.2-1.21.61.1.51-.3-.91-.91.3-.41-.51-.2-.2-.61v-1.42l-.2-.71.61-.91.1-1.21-.51-.5Zm4.14,13.15.51-.1-.1-.51-.51-.1-.3.4Zm-38-.1v-.61l-.51-.2-.2.61Zm47.63-.81v.4h.4v-.4Zm-3.34-.71v.5h.61l.1-.5Zm-34.68-.3.3-.3-.71.2Zm37.31-2.23-.4-.3-.51.2.1.61.51.3.51-.1.3-.4Zm-42.07.61.51-.1.1-.61-.4-.2-.71.61Zm39.84-1-.81-.41-.51.2-.2.51.3.3,1.21.1Zm-3.44.1.1-.51-.4-.2L47,118ZM7,115.06l-.1.5.71-.2.41-.51-.91-.2Zm6.17-1,.1.61,1.31-.4-.4-.91h-.71l-.4.2Zm33.67.4v-.61l-.51-.1-.1.51.2.4Zm-29.12-.61.61.2v-.51h-.61Zm36.81-.3v.3h.3v-.3Zm-43-.2.2-.41-.61.41Zm39-1.52-.3-.4-.61-.1v1.82l1.11-.71Zm-41.76.61.51-.2-.91-.4-.4.61Zm4-.91.3-.3.1-.51-.41-.3-.71-.1L12,111l.2.61Zm2.23.1v-.51l-.71.3ZM54,110.4l-.51-.1-.51.41.2.4,1.21-.3.4-.3Zm-2.33-.81h-.4V110h.4Zm6.47-.4-.1.4h.51V109Zm-54-.1.71.3-.1-.71-.51-.2Zm43.48-.2-.71-.71-.61-.2-.61.2-.4.51,2.23.71Zm7.59-.61v.61h.61v-.61Zm-44.29-.91.2,1.11,1.21-.4-.1-.61-.91-.51Zm41.66-.1-.51-.3-.71.41H50.28l-.61.2v.51h.61l.51-.3,2.23.51.2-.71Zm.81.51.41.51.3-.51Zm-50.26.3v-.3h-.4v.3Zm4.25-1.42.1-.61H6.69l.2.71Zm37.42-1.52v.71l.61-.1.1-.4Zm-34.89,0h.71v-.61l-1.11-.2v.61ZM61,104l-.51-.2-.2.61.4.51.51-.41Zm-9.51.61h.41l.2-.51h-.81ZM49.17,104l-.61-.2v.61l.5.1Zm6.27.2.4-.41.2-.61-.2-.51-.91.81.1.61Zm-39.54-.51.51.4.2-.4-.1-.51L16,103Zm42.47-.2-.61-.1-.3.4.61.3.51-.1Zm-44.59-.3h.71l.1-.51h-.81Zm33.17-1.72-.1.61-.41.4-.51-.2-.4.4,1.72.51.2-.51.1-1.31Zm17.29,1,.3.71.2-.71ZM62.11,102l-.4.4-.1.61,1.11-.3.2-.61Zm-49.75.3-1.21-1.52.2,1.72Zm-3.74-.1.51.2.61-.2.3-.51-.4-.3H8.92l-.51.2Zm34.89.1.4.1.3-.3Zm6.27-.41.81-.5-1.11-.2-.2.51Zm9.4-1.11-.2.61.4.3.41-.2.1-.51Zm6.67.61v.3h.41v-.3Zm-50.36-.2v-.61l-.3-.4-.41-.1-.2.61.2.71Zm32.66-.1.2-.61-.61.2-.2.71ZM12,100l-.4.41.2.61.51-.2.4-.91Zm44.8,0-.61-.1-.1.61.61.2.51-.41Zm6.37-.5v.4l.51.2v-.81Zm-19.92-.1-.3.3.4.2.41-.61Zm8.39.1.4-.41.1-.51-.91-.4-.1,1.32.2.4ZM7.6,99l.2-.51-.3-.41-.41.1v1Zm41-.61,1,.51.61.1-.1-.61-.91-.51h-.61Zm21.23.2V99h.4v-.41Zm-23.46,0,.61-.3.3-.61-1.11-.2-.2,1.11ZM68,98.07v.51l.5-.51Zm-54.41,0,.61.3.4-.2.2-.51-1.21-.81-.3.61Zm51.27,0-.1-.4-.51.2.2.51Zm-8.5-.71-.3.51.51.2.4-.61Zm-3.34,0,.4-.5v-.51h-.61l-.41.71v.61Zm-9.3-.1h.71v-.4h-.71Zm-31.35-.2.1-.3-.51.1Zm28.92-.3h.3v-.61Zm-32-.61.41.41.5-.2-.2-.51-.51-.2Zm59.56-.3-.61-.1.2.81.61-.2Zm-63,.4.1-.51H5.38v.61Zm60.77-.71-.4-.3-.41.51-.1.61.91-.2Zm-9.61-.4-.4.4-.1.4.61-.2Zm-11.43.4.1-.61-.4-.3-.3.61.1.51Zm2.12-.1.4-.2L47,94.83v.61Zm-35.09-.2,1.11-.2v-.71l-.91-.61-.4.3-.3,1Zm41.26-.81-.3-.1-.2.51h.51Zm-2.23-.91-.4.3-.1.61.71-.1.4-.61Zm-40.14.61-.1-.51-.61-.1v.81ZM58.67,93H57.46l.2,1.31.71-.1.4-.3.2-.61Zm2.33.3-.91.41v.61h1l.41-.4.1-.61Zm-42.27.1.71.71.71-.81-.81-.51h-.71ZM40,93.31V93l-.4.2.2.3Zm3.64-1-.61.2.1.61.61-.2.4-.4L44,92Zm11.83,0-.3.4.1.4.61-.3.2-.61Zm9.81-.41-1,.1.2,1H65l.71-1Zm-54.3-.2.2.71.61.2.71-.91.2-.61H11.15Zm35.39.3h-.41v.4h.41Zm3.34-.71-.2.71.61.2.71-.2v-.71l-.61-.41ZM15,91.39l-.51-.1-.3.61.91.1Zm37.41-.3V92l.51-.1.1-.61Zm-23,.81h.41l.2-.4ZM17.62,90.38l.2.71.51.4.61-.71.1-.61-1.11-.4Zm29.83,0h-.61l.2.71ZM37.84,90v.91l.71-.1.1-.61Zm29.83.1-.51-.41-.71-.1.2.61,1.11.61ZM25.5,89.47,25.1,89l-.61-.3-.71.71-.1.61,1.21-.3.51.51Zm-4.45.3h.61l.2-.51-.51-.2-.61.1-.2.4Zm10.72-1-.3-.4H31l.3.61.61.3Zm-21.34.3H11l-.2-.61-.51-.1-.3.51Zm17.39-.71h-.61v.51H28Zm-10.52-.2v-.61l-.3-.4L16.2,87l-.1,1.21.4.41h.71Zm31.35,0h-.51l.41.51.5-.3Zm-13.85-.81.51.41V87Zm-11.12,0,.61-.2.2-.51-1.32-.71-.61.3-.1.51.3.51.51.3Zm2.23-.2-.2.4h.61V87Zm15.37-.81-.2-.4h-.61v.71l.61.2Zm-21.13.2.4-.1-.2-.51h-.51l-.2.51Zm10.31-1.32-.4-.4-.61.1-.1,1h1.21Zm5.87-1-.41.3-.1.61.91.41.2-1.32Zm-20.73.41.3.5v-.91l-.51-.1-.3.3Zm6-1.52-.2.4.2,1.11.51.3.2-.71-.1-1.31Zm10.92,1.62.61.1.61-.2.81-.81-.51-.1-1.52.51ZM43.4,83.41l-.1-.51-1.11.2-.2.4,1.31.3Zm-3.94.3.51-.1-.4-.51-.51.4Zm-20.32-.1h.51V82.9l-.81.1-.2.51Zm12.34-.71-.1.4h.51V82.7Zm-5.66-.61.41-.4-.1-.51-.51.4-.71.1-.3.61,1.11.41Zm3.13-.3h-.81v.5l.51.2.51-.2Zm-8.09-.61-.1-.51-.41.71ZM32.18,81l-.4.4.61.2.3-.4Zm-4.65-2.33-.2.41.51.3.2-.61Z"/><path class="cls-1" d="M9.12,5.43l1-.51,1.21-.1,2.83.41,1.52-.71,3.34,1,1.31,1,.41,2.12-.41,1.11.3.4.3,1.21-.2,3.44.3,1.62-.2,1.72v2.42l-.3,1.32.2.61.3.3-.51.91.2,2.63-.91.71.71.2.1,4.75.3,4-.2.61-.81,1.11.51,2.93.3.61-1.11.2,1.11,1.32.5,1.21,1.11.81.4.51h1.72l.91.4.51-.3,1.21.1.51-.3.4.4.71.1,2.53-1.42.71-.61.3-1.11-.71-1.11V39.1l-.2-.4.2-.51-.2-2.53L32,35l-.41-.71-.1-1.62-.3-.51.71-1.21-.3-.61.51-.2-.1-.51-.41-.2-.1-2.23L32,24.84l-.2-.61-.41-.3.3-3.74.3-.91-.61-1.82L32,13.31l1.21-1.11.71.1,3.84-.2,1,.2,1,.61.51-.2.81-.71h.71l.1.51-.3.51.1.51.91-.61h.71l-.2-.41.3-.2,3.24-.3.61.91.51-.3,1.31.2.91.81.1.5-.2.51-.4-.4-.51.2,1.21.91-.1.61-.61.91h.71l.1,2.63-.4,2.43.4,1.11-.1,2.43L49.06,25l.2.61,1.31.71-.4,1.42.2.61-.2.71-.51.3.51.4.2,2.53-1.11.4-.2.51.51.2.61-.2.2,5.16-.1,2.23-.4,1.21.51,1.31,2.23,2.13h4.65l1.21-.41,1.32-.81.2-2.33.3-1L60,39.6V36.27l-.2-.61.2-.61.71-.81-.3-.41-.51-.2v-.51l.41-.61-.41-1.11V28.68l.61-1.62-.1-.5-.4-.2-.1-.5.61.1.3-.3.41-1.11-.51-.1-.61.2-.3-.61.1-.61.71-1.11.51-.4-.3-.51-.5-.3.3-1.21L60,17.66l-.1-1.21h.71l.51-.51-1-.4.61-1.72-.71-1-.4-1.42.5-1.32V9.47l-.3-.61.71-2.63,1.82-.71.4-.4,1,.3,1.82-.2L66,5l.3-.5,1.11.3,3.84.41.51.2,1.11-.71.61.1.91.61.1-.71,1.82.4.1.3h.5l.61-.3.61.2L79.3,7.25l.41.3-.1.61.4,1.92-.4,2.53.3,1.21-.41,1,.2.61-.1,2,.2.61.51.3L79.2,21.1l.3.41.61.2L80,23.12l-.51,1,.3.71v.61l-.61,1.82.1.61-.51.1-.2.4.51.2.61-.2.1,1.11-.3,3.64.1,1.21.51,1.21-.2.61L79.3,37l.41.3.4,1-.3,1.21-.1,1.82-.2.51.3.51L80,45l.3.4-.61,1.52.3.71-.2,2.53.3.51-.91.91.91.81-.3,2.43.3,1.62-.3,1.72.2,1,.3.51-.2,1.21-.61.81.3,1.82-.4,1-.81.91-.91.5-.61-.3-.3-.61-.61.2-.1.41-.41.3-.2-.71-1.31.1L71.82,66l-1-.1-.61-.3-1.31.51-1-.3-3.54.3-2.53-.61H60.59l-.51.3-.71-.4L58.17,66l-.5-.4-.51.4L56,66.3l-1.31-.41h-.61l-.3-1.42-.41,1.32-1.11.1-.61-.2-.3-.3-1,.71-.51-.2L49.27,65l-.51,1.11h-.71l-1.42-.71-1,.5-1.11.1-2.33-.2-.91.3h-6l-.91-.3-3.74.51-1-.41H27.83l-.61-.5L25,66l-.51-.1-.2-.61.4-.51-1.11.3-.81.71-1.31.1-1.11.41-1.11-.41-1.62.2-.41-.3-1,.3-1.32.1L14,65.8l-1.72.4-3.54-.3-.51.2-1-.2H4.57L2,65.39l-1-.61-.3-.51-.3-9,.71-1.11-.4-.3-.2-.51L.83,52l.3-.3L.42,48.5l.3-.81.4.1v-.71l-.51-.2-.2-.51.2-1.52.71-1.11-.81-.2V36l.4-1.62-.51-.71.3-1.11L.53,30.2l.1-1.11.3-.51L.42,26.36l.1-5.05-.3-3.54.3-1.11-.4-2.12.2-1.32.61-1.82-.3-.71V8.26L1.84,5.43l2.23-.51,3.64-.2.91.51ZM56.75,64.68l-.71.1.41.2Zm17.19,0v-.41h-.41v.41ZM59.79,63.47l-.71.1-.3.3-.1.61.91-.51Zm-41-.1L19,63l-.51.4Zm47.22-1.31-.51.1-.2.61.51.2.41-.41Zm-43.79.3.91-.1-.3-.61-.61-.2-.2.51Zm4-.1-.2-.81-.51.81ZM12,62.06v-.61h-.61v.61Zm21.24,0-.2-.71-.5-.3-.71-.1-.2.51,1,.51Zm39.23,0,.4-.81-1-.1-.3.3.4.4ZM52.1,61.65l-.2-.51-.51-.2-1,.1.2.71.4.2.51-.1ZM21,61.45l-.1-.51-.3-.2-.4.51Zm9.71-.2-.2-.51h-.4l-.2.51Zm9.71,0,.1-.91-1.11-.41-.1.61.51.51Zm20.73,0v-.51h-.61V61Zm-2.83-.91-1-.3-.4.3-.1.61.51.2.71-.2ZM46.54,61v-.3h-.4V61Zm-28.42-.91.2.61.3-.3Zm-1.92-.3-.41.1.1.41Zm30.64.1-.2-.71-.61.1-.3.3.51.51Zm18.71-.3v-1l-1.42.61-.61-.2-.2.61.4.4,1.32-.1Zm-12.14.3.3-.91-.3-.51H52.5l.1.71.3.41Zm-28.92-.1.51-.2.4-1.11-.71.2-.4.51Zm10-.81h-.3v.51Zm-12.44.2-.51-.91-.51-.2-.4.3-.1.81,1,.2Zm28,.2.3-.91-.61.1-.3.4ZM10.64,59v-.51h-.51l-.2.3Zm-6.88-.2.2-.51-.61.3Zm56.12,0,.51-.91.1-.71-.61-.3h-.61l-.41.4-.1,1,.4.3Zm11.83-.91-1.32.2-.2.71h1l.4-.3Zm-39.94.71v-.91l-.71.3-.3.61ZM8.21,57.71H6.69v.61l.61.1.61-.2Zm20.73.61.41-.51V57.3l-.41-.3-.51.5h-.61v.61l.61.1Zm10.11,0-.2-.1-.4-1h-.51v.71l.4.3Zm30.24-.4-.2-.71-.51.2-.2.51.4.2Zm-52.48,0,1.11-.3.3-.4.1-.61-1.52-.2-.3.51v.51Zm3.54,0V57.4l-.71.3ZM34.4,56.39,34,57l.2.4.51.3h.61l.51-.3.2-.61-1.11-.3ZM45.73,57.5l.2-.5-.91-.2.2.51Zm20.93-.3.2-1.32-.91.61-.2.51.4.1Zm-52.28-.41-.3.3Zm40.55-.2h-.4v.51Zm-31,.41.41-.61-1.52-1.11-.1.61.2.51.51.4Zm18.51-.61-.71-.2-.2.61.61.2Zm22.35.2-.2-.61-1.11.2-.71-.1-.4.71.61.2,1-.41Zm-61.38,0-.2-.51H2.65v.51Zm49.25-1.52-.51.3-.61,1,.61-.2.4-.51ZM43.3,56.19v-.3h-.4v.3Zm26.9-.1.61-1-.41-.3H69.19l-.5.2.1.61.81.51Zm-57.54-1-.61.3-.3.51.51.1.4-.41Zm49.15.81.2-.51-.61-.3h-.71l.1.61.51.3Zm-52.48-1-.4.2-.1.61.51.2.3-.1Zm27.61.81.4-.4-.1-.71-.61-.2-.1,1Zm-7.28-.2.71-.1.2-.4-.3-.4-.71.3Zm-2.53-.91-.81-.41-.3.71.3.41h.51Zm-10.31-.81-1-.91-.51.91v.71l.3.4h.91l.3-.5Zm18.51,0-.91-.3H33.19l-.3.71.1.41.3.2h.61L35,54.27Zm12.44.81-.2-.51-.71-.1v.61l.51.2Zm17.39-1.11-.3.51-.1.81.71-.2V54ZM7.3,54.57V54H6.69v.61Zm36.4-.41,1.11-.2-.2-.61-.51-.2-.61.1v.51ZM23.38,52.65l-.41-.3-.51.2-.4.51V54l.91-.81ZM40,54l.71-.1.41-.41h.71l-.3-.51-.51-.3h-.71l-.51.2v.71Zm22.25,0-.1-.51-.3-.3-.61-.1.1.61.3.3Zm-49.35-.71-.5-.2-.2.71h.61Zm-11.22.41-.1-.81-.61.61Zm9.91-.81-.51-.3-.2.71Zm56.63.4,1.11-.71.2-.61-.4-.2H68l-.3.5v.61Zm-48.54-.2-.2-.51H19l-.2.51Zm10-.51-.91-.81-.51-.1-.4.51.91.71Zm21.54-.4-.2-.4h-.71l-.2.4v.71l.71-.2Zm-42.37.51L8.52,52l-.71-.1-.3.61.61.1Zm30.24-.51h-.81l.2.51h.4Zm18.81.4-.41-1.11-.51-.2-.2.51.2.61.41.3Zm-22.35-1,.3.2-.3.3v.51l.51-.2.1-.51-.2-.51Zm11.73.41-.2.61.4-.3Zm1.52.61v-.61l-.41.2-.2.4Zm25.58-.2.61-.1.41-.4.1-.61-.81-.41-.41.3-.1.61ZM26.92,51.24l-1.52.1-.4.41.4.4H26l.61-.3Zm6.17.3-.2-.71-1.11-.61-.41.51.2.51,1,.51Zm13-.51h-.61l-.2.51h.61Zm18.61,0-.51-.2-.61-.91-.1,1.32.61.1ZM42.9,50.12l-1.21.1.1.71.3.3.81-.41Zm-31.35.71-.4-.2-.3.4.4.1Zm3.94-.61-.61-.2-.61.3-.3.51.4.3H15l.4-.3Zm24.27.4-.2-.61-.3-.3-.61-.2-.4.91,1,.2Zm33.57-.51h-.51l.2.51Zm-60.27-.61-.51.3-.2.61.71-.1Zm9,.71-.4-.91H21l-.3.3-.1.61.91.2Zm28,0-.4-.61-.71-.1.1.61.41.3Zm-3.74,0v-.51l-.81.2.4.2Zm24.47-.3-.2-.71-.61-.3-.1.61.3.51Zm-3,0,.41-.81-.61-.3h-.71l-.4.51.51.4Zm-20.32-.2-.2-.61-.61-.2v.61Zm-12.74-.2v-.71l-.2-.41-.71.2.4.81Zm-27.2-.2v-.41l-.41-.1-.2.51Zm6.17-.71-.3-.41-.71-.2v1.32l.71-.1Zm11.12.3v-.3l-.3-.2-.2.51Zm19.62-.51-.71-.2v.71l.51-.1Zm28.82.51.71-.1.4-.3-.1-.4-.4-.3-.81-.1v.71ZM31.57,47.8l-.51-.1-.5.2-.3.5v.41l1.21-.3ZM5.38,48.4l-.71.2.4.1Zm36.1.2.1-.71-.3-.61-.61.2-.2.91ZM38,47.8v-.91h-.91l-.2.51.2.51.41.2Zm-17.7,0,.2-.91-.2-.2h-.71l-.2.81.51.2ZM48,47.49l.71-.2.3-.61-1-.3-.1.51Zm-38.43-.2-.2-.71-.51-.2-.2.51.3.3Zm60.07-.61h-.71l.4.51Zm-25.69.2.91-.51h.71l-.3-.51-.61-.1L44,46l-.3.4Zm21.84,0,.51-.2V46l-.61.3Zm-47.43-.2v-.51l-.41.51Zm17.49-.91-.2.71.61-.3Zm-29.63.41-.1-.61-.51-.2.1.61Zm66.44,0,.4-1.52-1.21-.2-.3.4.61,1ZM15.09,46l.51-.41-.51-.3Zm27.5-.41v-.51l-.4.1-.2.4Zm-5.05-1.82h-.71v.71l.61-.1ZM8,43.75h-.3v.51Zm34.79,0,.71-.81.5-.3-.61-.2h-.81l-.3,1ZM17,43.35l-.81.2.5.1Zm57.13-.71.4-.3v-.51l-.61-.2Zm-56.93-.81.51-.3-.1-.61-.41-.3-.4.51Zm60.88-.51h-.71l-.3.3h.71Zm-42.77-.91-.41.1v.61l.71-.3Zm6.67.3L42.9,40l-.1-.5-1-.41-.51.91.2.51ZM9.93,39.6l-.1-.51-.3-.2v.51Zm27.81-.71L37.13,38l-.51.1.51.71ZM44.21,38l.4-.81-.71-.1-.2.4Zm-3.74-.61,1.21-.71-.4-.5-.61-.3L40.37,37Zm32,0-.2-.4-.3.4ZM39.36,35.86h-.71l.4.51Zm-3.13.4-.3-.4-.3.4Zm32.66-.91-.41.2v.71l.61-.1.1-.41ZM15,35.16v-.81l-.51.2-.3.41Zm27.6-.2.61-.2.3-.5-.41-.41h-.4l-.2.41Zm-2.83-.2.41-.71v-.61l-.41.2h-.71l-.2.61.4.3Zm31.55-.91v-.71h-.61l-.1.51ZM47.25,32.12l-.61-.2-.91.81,1.32-.1Zm30,.61.2-.4-.61.4Zm-35.6-1.11.2-.5-.3-.41-.51-.2-.1.4.2.51ZM39.05,30.5l-.61-.1-.41.4h.71Zm5.56-.4.2-.71h-.61l.1.51Zm-4.65-2v-.4l-.61.2Zm-2.63-1-.51.61.71-.1Zm9.31.41.2-.61-.51-.3v.61Zm21.74-.91-.61-.2-.4.61.71.1ZM44.21,26l-.51-.3-.61.1-.3.61.5.41.61-.3Zm27.1.2h.61l.1-.71-.51-.4-.41.51ZM12,24.54l-.51.2-.4.91.51-.2.2-.51Zm27.1.51-.1-.51-.3-.2-.2.51Zm39.34-.91-.3.3V25l.61-.3Zm-43.28-.61-.3-.4-.3.4Zm42.17-1.42V21.6l-.41-.3-.1.81Zm-71.7-.4v-.4h-.3v.4Zm38.53,0,.1-.4-.51.4Zm21.44-.61v-.51l-.41.51ZM41.48,20l-.81-.2v.61h.51Zm28.11-.71-.61-.1-.3.61.61-.1Zm5.86.51.51-.2v-.71h-.71v.51Zm-14.05-2-.2-.3-.51-.1.2.61Zm-18.3-.4-.51-.3v.61Zm-2.43-.1v-.4h-.3v.4Zm33.67-.81.2-.41-.2-.4-.61-.1v.71Zm-11.63-.71-.4.1-.1.41Zm13.45-1.52v-.4h-.4v.4ZM70.61,12.5V12l-.41.51Zm-2.43-.3-.3-.4-.3.4ZM61.1,12v-.4l-.4-.2-.2.61Zm16.38-.91-.51.1-.2.4h.61Zm-5.56-1-.81-.51-.1.61.4.3ZM69.49,9v-.3l-.4.2.2.3ZM68.38,6.23v-.4H68v.4Z"/><path class="cls-2" d="M237.9,107.85l-.53.89-.89.36v1.43l-.71,2.14h-1.61l-.18,1.25-.54.89-.89.54-.54,2.14-.89,1.79-2.32.89v1.43l-.54.89-1.07.54-.89-.18-.54,2-1.25,1.61-1.79,1.25-4.46,1.43-.36,2-1.07.54-1.61,1.78-1.79,1.25-1.07.18-1.61,1.25-6.25,2.32L203.08,140h-1.61l-3.39,2.14-3,.71-4.47.18L189,144.64l-1.79-.36-.89.53-2.32.54-1.25-1.07-1.07.53-2,.18-.54.89-1.07-.36-4.29.89-2.32-.72-2,.89-.89-.89-.89-.18-1.07.36-2.14-.18-3.75-1.25-2.14.18-.36-1.61L157,144.28,151.12,143v-2.32h-1.25l-1.43.89-.89-.36-.36-.89-2.32.71-.53-.71.18-2-.54.36-.18.89-4.29-1.25-8.57-5.54-2-.72-.71-1.61-2.86-1.61-6.25-6.07-1.79-1.25v-1.43l-1.61-.18-.89-2.68-2.5-2-1.25-1.61L107.91,108l-1.43-1.61v-1.61l-.36-.89.18-1.07-1.07-.71L104,100.53l.18-1.43-1.61-3.39V94.46l-1.61-1.25-.18-4.46-2.14-8,1.07-1.61-1.07-2.86.18-2,.54-.89-.54-2-.18-3.93.71-4.29.54-.71.53-2-.18-4.64L101.48,53,101.3,52l.72-.54h1.25l-.72-1.79.54-1.79,2-3.75.18-1.07h1.25l.89-.36.54-.72V40l-.36-.89,1.25-2.68L110.05,35l1.07-.18v-2l.89-.54,1.43-1.79h1.07V28l1.61-.36.54-.89,2.5-2.14L120.41,23l2,.36-.18-.89-.54-.53-.18-.89L125,19.64l.89-2.32,2,.36.72-2,3.93-.89v-2l.36-1.07.89.71,1.43.36,1.07-2.32,1.25-.36,2.32-2.32,7-2.32,2.32-.36,1.43-1.43,4.11-.36L157,2.86l.71-.89L162.19.89l1.25.36.89.71,5-1.07L171.12,0l4.11.53.89.72,2-1.07,2,.54,1.61.89h6.07l4.11,1.25,1.79,1.07,1.25,1.25,1.43-.89,1.25.18,10.18,4.11,1.43,2,2-.36.54.89,5.53,3.39.54.89L220.58,17l3.22,2.5,8.39,9.46-.36.89.36.71h2l1.79,3.57,1.43,4.11L237.19,40l-1.43,1.43-1.25.36-1.43,1.79-1.79,1.25-7,3-1.79,1.25-2-.36-1.25,1.61-.89.53-.71-.53-1.61,1.07L215,51.6l-.89-.54L214,50l-.89.72V53l-3.21.18-1.07.71-4.46-1.61-.89-.71,1.07-1.25L204,49.28l-1.43-1.07-2-.18-2-2.32L193.44,42l.89-.71.54-1.25h-1.43l-2-.54-1.43.18v-.89l1.78-1.61-1.07-.36-4.47.71-.18.54-1.79-.54v-.71l-3-.36-11.78-.53-2,.89-2.32-.18-3.93,1.07-1.07-.18-3.39,2.68-3,1.43L150,43.93l-1.25,1.79h-1.07l-3.57,2,.36,2.32-1.79,1.25-3,5.89-2.14,2.5.36,3.21-1.61,1.43.18,2-.71,4.64.71,2-.36.89-.18,4.47-.36.89-.71.53.71.89,1.61,1.07-.36,1.25.36,1.07,1.43,1.79-.36.89.54,3,.71.36h1.07l1.79,3.93,4.82,7,1.07.18,3.22,2.14,2,.89,1.43,1.61,7.32,3.39h1.43l2.86,1.25h11.78l4.11-1.25,1.61.53,3.57-2,2.14-.71,3.57-1.79h2V103l2.32-.18,3.75-4.46,2.5-3.57h3.39v-2l2.86-.36.54.89,2.68,1.25,1.43,1.07.36,1.07,4.29-.89,2.14,1.61h1.07L222,98.74l1.61,1.43.89-2,1.43.36V100l.36,1.07,2.5-.54,2.14,1.61,1.25-.36.36.71-.36,1.25,1.07.18,1.25-.54,2.32,1.79,1.25,1.61ZM106.84,68.21v-.71h-.54v.71Zm1.07,15.54h-.72l-.36.89h.71ZM109.16,53l.36.89.36-.18Zm.71,12,1.07.54.89-.18.36-1.07-2.32-.36-.71.54Zm3,16.61.18-.54-.53-.36-.36.71Zm2.68,7.14-.36-1.61-1.78-.89-.36,1.07,1.07,2,.89.36Zm-.71,5.54-1.07-1.79-.36,2ZM114.16,52h.71l.18-.36-.54-.54Zm.18,3.75-.18.89,1.07-.36.18-1.25h-.89Zm.72,27v1.07h1.07V82.67Zm1.61,18.93.18-2-.72-.54-.71,2,.36.89.71.53Zm1.61-57.85,1.07-.36L119.16,42l-.54-.36-1.43,1.07-.36,1.07Zm-.54,35h-.89v1.07l.89.18Zm1.61,32.15-1.25-.18.53.71,1.07.18Zm-.18-74.28-.54.54-.18,1.07,1.07-.71.54-.89Zm.18,18.75.89-.54.18-1.07-1.25.18L118.44,55Zm-.18,3.21h-.71v.71h.71Zm1.07,48-1.43-.89v1.07l1.61.89Zm-.54-36.25.36-.89-.89.36Zm.18,20.18-.71-.54v.89Zm.36-41.43.18.89,1.07.36-.36-2-1.43.36Zm2.86,11.43-.72-1.61h-1.61v.89l.54.71,1.79,1.07Zm-2,3.93-.36.89.36.89.89-.54V64.28Zm1.25,34.11-1.25-.72v1.07l.54.54Zm-.53-53-.36.54.71.36.54-.71Zm1.07-5.36-.89.36.36.89,1.07.36.18-1.25Zm0-5.36v.89l.54.71,1.25.18V34.28l-1.25-.36Zm3.22,48.93.18-.72-1.79-.36-1.07.36.36.89.89.54,1.25.18Zm-1.43,8.75-1.25-.18.54,1.25Zm-.54,19.82-.71-.36v1.43h.89Zm.54-65.89.71.36.18-.36.71.71V45.71l-1.61-.36Zm0,5.54.71-.36-.71-.54Zm1.25,68-.89-.18-.36.72Zm-.18-88.39-.71.71,1.25.18Zm-.53,36.25-.18.89.89-.18V67.49Zm.71-20.18-.18.71.54.36.36-.71Zm2.14,11.07-.71-.89-1.07-.54v.89l1.61,1.43ZM127,43.39l.72.71.36-.89-.71-.71ZM127.73,93,127,94.81l.54.72,1.07.36,1.07-5.36-2-.89v.89l.54.71v1.07Zm1.61-55.53-1.43.89-.18,1.07,1.25-.18.89-.54.36-.89Zm-.18,74.82.18-1.25-.71-.71-.54,1.07.18,1.25Zm-.53-79.46.36,1.79,1.07.53.36-.89L130,32.5l-.71-.54Zm.89,73.92.18-1.07-.89.53-.18.89Zm.53-5.89-1.07-.36.18,1.25,1.07.36ZM132.73,45l-.36-1.07-.71-.72-1.07-.36-.18,1.07.36,1.07.71.72,1.07.36Zm-2-14.28.89.18V30h-1.07Zm.18,17-.36,1.07.36.89.72-2-.36-.89ZM132,116.24h-1.07l.18,1.07.89.36Zm.53-92.5.36,2,1.07-.54v-.89l-.54-1.07-.89-.54ZM132.91,37l.89.36,1.07-.18-.18-1.07-2.14-.18Zm.71,67.5-.71-.36v1.07H134Zm.18-73.75.18.89.89.71.71-1.79L134.52,30ZM137.37,43l-.36-.89-.71-.54-1.43-.18.54,2,1.78.71ZM136.3,28l.89.18.36-1.07-1.07-.53ZM137.55,22,137.19,23l.89.18,1.07-.36.36-.89-.54-.72-1.07-.18Zm.89,105.53.36-.89h-1.61l.36,1.25Zm.72-91.6.71-2-1.25-.36-1.07.36v1.43l.71.89Zm1.25,10.35.71-.53-1.07-.36-.89.36Zm-.54-16.43.71.36.18-1.25h-.89Zm1.79,83.93-1.07-.36.18,1.25,1.07.36Zm-.89-73.57.54.53.53-.53Zm2.86-7.5.54.89.89-1.25-1.25-.71Zm.89-7.32.18,1.07,1.07.54.36-.89L145.76,25l-.71-.71Zm2.68,15.18h.54v-.72h-.54Zm2.68,83v-.89l-.53-.72-.72.72-.18,1.07.89.54Zm.54,18.57-.71.53V141.6Zm.36-23.57H150v.72h.71Zm.36-93,.53.36-.53-1.25Zm1.07-5.71,1.25.53.18-1.07-.89-.54Zm1.61-4.47.89-.18L155,14.1l-1.61.36ZM155.94,27H155l.36,1.25.72.18.53-1.07Zm.71-5.18-.36.89.89-.18.54-.89Zm1.25-3,.71-.36-.36-.71-.36.36ZM162,129.46l-.72-.36-1.07,1.43.71.36ZM161.66,18l-.36,1.07.72.54h1.25V18.57l-1.07-1.25Zm1.43-2,.89.36v-.89l-1.07-.36Zm2.86,112.49,1.07-.36.54-.72-.72-.36h-1.25l-.71.36v1.25Zm1.61-110.89,1.07-.54-1.07-.71Zm1.61,115.71-.36-.36-.89.36v.72l.36.36.89-.36Zm3.75-12.14-.71-1.07-.36.71Zm-.36-106.06.89-.36V13.75h-.89Zm.89,10.71V27l.89-.18.53-.54ZM178.8,122h-1.07v.89h.71Zm2.32-100.17L182,22l-.54-.89Zm1.61-6.25-.71.54,1.61.36v-.72Zm7,3.93.89.53.36-1.07-1.25-.54ZM193.8,118l.53-.72-1.43-.71v1.61Zm7.32-102.32h.72v-.53h-.72ZM202.9,28h.54V26.61h-.54Zm.72-4.29.89.18V22.68h-1.07Zm1.78,15v1.07l1.07-1.07Zm1.25,11.07-.53-.36-.54.89.18.71.18-.54.89.18Zm.72,69.11.36-.89-.36-.72h-1.25l-.36,1.07.36.89Zm-.89,4.64h-.72v.71h.72Zm1.61-98.21.71-.36.36-.71h-1.07Zm.71,69.46h.54L209,94.1l-.54.36Zm1.61,32-.53-.89-.72.71Zm.54,5.36-.54.36.36.36h.71Zm17-11.6h-.71l-.36,1.07h.71Z"/><path class="cls-2" d="M396.37,66.19l-1.43-2.32-.18-4.64-.54-2.32-1.61-2.5.18-2.32-.89-2.32L390.66,48l-.89-.53.54-.89v-.89l-.89-2L388,42.45V40.12l-1.61-2.68L386,36.19l-1.61-.71-1.25-1.61-.36-1.25-2,.36-.36-1.25-.71-.54-.36-1.25h1.07l.36-.71-1.43-1.61-4.28-2,.18-.71-.71-.71.36-.89h-2l-.36-.72V21.55l-.71-2-2.32-2.14-3.22-1.79-1.07.18-.36-1.07-1.07-1.43-9.64-5.89h-2.14l-.36-.89-1.79-.89-2.32-.36-2-.89-.54-.89L339.59,3l-1.07.36-4.11-1.43-1.07-.71L331,1.38,327.8.3l-.71.54L326,1,323.88.48l-8.93.71L313.52.3,311.73,1l-2.14.36-.71.53h-2.14L303.34,3l-1.25-.36L301,2.8l-3.93,2L288.52,8l-3.75,2.14-1.61,1.43-2,.18-.53,1.79-3.75,2-1.43,1.61-.18,1.07-2.32.36-1.43,1.07-.54.89.72,1.07v.89l-1.07-.36-2.68.53-.89,2.68-1.25.18-1.43,1.43.89.36.36.72h-2v1.25l-2,1.07-.36,2-.53-.72-4.11,5.89-.54,2.32-1.43,1.61-.18,2.5-1.43,1.43-.89,2-.36,2.5-.72.72-1.61,4.11L248.52,59l.71,2L248,62.27v3.39l-1.07,3.93.72,2.14.18,2-.53,6.79,1.07,2.5-.71,2,.71.71,2,6.25,1.25.36-.18,1.07-.89.54-.18,1.07,1.25,1.25,1.61,6.25,1.07,2,1.25,1.43L256,108l2.5,3.39v1.25l3,3,2.14,3.93,4.11,3.22,1.25,1.78h1.61l1.61,2.5,2.68,3,1.61.89,2.32.54-.36.71.36.89,4.11,1.61,1.25,1.61h1.07l2.86,1.61,1.61,1.43,1.07-.36,1.07.18,4.82,3.21,1.61-.71,2.5,1.61H303l.71.54,3,.89,2.14-.18.71-.54.89.36,1.43,1.25,2.68-.89L316.2,146l1.78.18,4.29-.36,2.14.54,1.61-1.43,1.07.36,4.11.18,6.07-1.43.71.72,2-2.14,1.25-.18.71,1.25,7-2.86,4.64-1.07.71-.72,3.57-2,1.25-1.61,3.22-1.25,8.57-6.25,6.25-5.36.36-1.07,1.79-1.25.18-1.61,3.39-3.39.72-2,2-1.61,3.93-7.32.53-4.29,4.29-7.85-.18-2.32,1.61-6.43ZM256.73,81l-.89.36-.36-.89.71-.36h.89Zm-.18-4.46V75.48l1.25.89ZM370.3,34.94v1.25l-.89-.18-.71-.54-.18-.89Zm-2.14,7,.36.89L368,43.87l-1.43-1.07-.18-.89,1.07-.36Zm.71,12.85.36.89h-.89V54.41Zm-5-11.78-.89-.53,1.07-.54.53.89Zm1.79,42.32-.36.72h-.72V84.94Zm-2.32,8.22L363,94.58l-.89.36-.36-1.43.71-.18Zm.93,10.14,2-.54-.18,2.32-.54.72-1.07-.36-1.25-2Zm1.57-42.82-.18-1.25,1.07.36.18,1.25Zm.18-42.5,1.25.36-.36.71H366Zm-3.39,6.07.89.18.54.71-.72.54-1.07-.18-.18-.89Zm-6.1,5.76a5.86,5.86,0,1,1,0,8.29A5.86,5.86,0,0,1,356.52,30.17Zm4.5,74.24h-1.43l-.18-1.25,1.25.18Zm-2-58.93-1.07.18-.18-1.25.89.18Zm-5.36-24.82h.71l.36.36v.71l-.36.36h-.71L353.52,21Zm.71,5v.71l-.36.36-.89-.36v-.71l.36-.36Zm-.89-2.32.18.71-.54.36L352.8,23Zm-1.07,7-.36.89-.71-.36-.18-.89Zm-2.32-11.6,1.07-.54.54.54-.54.89-1.43.18ZM349.05,23l1.07.18.36.89-.72.36-1.25-.71ZM351.2,35.3l-.54.54-.89-.36Zm-3.39-7,.36-.36h.72l.36.36-.36.89-1.07-.36ZM346.55,31l.36,2.5-1.07-.36-.72-.89-.18-1.07h.71Zm-2-11.61h.89v1.25l-.54.71-.72-.71Zm-3,14.82.36,1.07-1.25-.36-.36-1.07Zm-4.11-6.43,1.07-.54-.18,1.25-.71.72-.54-.72Zm-.18,4.82.36.71h-.71l-.36-.36ZM336,16.73l-.36.36-.36-.89Zm-3.39-2.86.71.18-.36.71-.71-.36Zm-2.86,4.82H331l-.36,1.43-.89-.36ZM328,27.26v-.89L329.77,28h-2Zm-9.47-16.07.36.89-1.07.18-.36-1.07Zm3.12,1.09a5.86,5.86,0,1,1-5.86,5.86A5.86,5.86,0,0,1,321.64,12.28Zm3.49,13.37v1.07h-1.07V25.66Zm-10.53-.89.53.89-1.25-.36Zm-2.14-16.6.36.71h-.54l-.36-.36Zm-2.14,13.21.89.36-.36.72-.89.18Zm-8.4-3.57.72.89h-1.25Zm-7.32,5,.71.36.18.89-1.43-.71Zm-7.5-5.36h.72v.71h-.72Zm-8.62,12.72a5.86,5.86,0,1,1,0,8.29A5.86,5.86,0,0,1,278.47,30.17ZM285,44.41v.71l-1.07.36V44.41Zm-1.43,56.43.54.53-.18.72-.54-.54Zm-.89-47.5-.71.71h-1.25L281,53l.54-1.25.71.53Zm-3.75,31.43h1.07v.89h-1.07ZM277.8,67.08l-.53-1.25,1.25.18.36.89Zm-1.43-27.5.71.18.18,1.07-1.07-.18-.18-.89Zm-1.43,4.47-.36.36-.36-.89Zm-2.14-12.5.89-.36L273,33l-.54-.54Zm.18,4.64v-.71l.71.36Zm.71,1.07-.36,1.25-.71-.72Zm-2.32,23.93-.18,1.07-.54-.89Zm-3-9.82,1.07.36-.36.71h-.71Zm.89,15.18.18,1.25-.89-.36-.18-.89Zm-9.47,22.68h-1.25v-.89l.36-.71.89.36Zm3.93,2.32-.36-1.07-.18-2.14.71.54.36,2Zm-.72-5.9.18-.89,1.07.53.18,1.43-1.07-.36Zm2.68,17.5-1.25-.71.71-1.25.72.71ZM266,81h-.53v-.53H266Zm.43-1.81a5.86,5.86,0,1,1,5.86-5.86A5.86,5.86,0,0,1,266.45,79.2Zm2.78,5.39-.89-.18.36-.89.54-.36,1.07.18-.36.89Zm1.07,11.61.36-.89.72-.36.89.36v.89l-.89.36Zm1.07,10.17h.89v1.07h-.89Zm1.25,5.72-.89-.36v-1.07H273Zm.89-30.71.18-.89.89.18-.18,1.43-1.07.36Zm.36,4.82-.36-.89.53-.89.72.36.18,1.25Zm1.61-30.54.18-.89.89.36v1.61l-1.61-.36Zm.54,5.89.53-.53.72.18-.54.72Zm3.39,60-.18-1.25.89.36.18,1.25Zm2.86,1.25.36-.89.54,1.07Zm3.27-.89-.72-.36.18-1.07.54-1.25.89.53.36,2.14Zm1.22-5.4a5.86,5.86,0,1,1,0-8.29A5.86,5.86,0,0,1,286.76,116.51Zm1.75-11.74h.89v2.32l-.54-.36Zm2.14,13-.71.54-.72-.36.36-1.07,1.25-.18Zm.71,10.72.72-1.25.53.54.18,1.07Zm1.79-4.11-1.43.54-.54-1.07.18-1.25,1.79-.36Zm3.39-8.75h-1.61l-.54-.72.71-.36h1.25l.71.36Zm1.79,5.53-1.25.18-.36-.54.36-.71,1.25.18Zm.71,12.68.36-1.43,1.07.54.54.89Zm4.29-14.82-.89-.36V118l.89-.36Zm2.32,13.39-.89-.36v-2.5l.53-.72,1.07,1.61Zm.89-5.18.36-.71h.71Zm4.11,6.43-.72-.36v-1.25h1.25l.36,1.43Zm.36-3.57-1.07-.36.18-.89.71-1.61.89.54.54,2Zm3,6.17-.71-.89.53-.36,1.07.71Zm.89-10.19-1.79-.18v-1.25l.72-1.43.89.53.36,1.25Zm-2.14-5.63.71-.89.71.72-.36.89Zm8.84,13.91a5.86,5.86,0,1,1,5.86-5.86A5.86,5.86,0,0,1,321.64,134.39Zm4.38-13-.54-1.07h1.07l.72.36.18.89Zm1.43,1.07v1.07H326l.18-.89.54-.71Zm.89-3.39h-.54v-.72h.54Zm2,11.78-.89-.54.89-.18Zm1.07-4.29L330.3,126l-.53-1.07,1.07-.18.54-.71.89.18ZM333,120.3h-2l.18-1.25.72-.54,1.07-.18Zm0-3.39v-1.25l.89.71Zm3.93,6.61-.89-.36-.36-.71.36-.89.89.36.36.89Zm-1.25-5.89.18-1.07,1.43-.89,1.07.36-.53,2.14-.89-.54Zm2.86,17.14h-.89l-.36-.71,1.25-.18Zm-.54-5.17.36-1.25h1.07l.54.89Zm4.64-8.57h-2.14l-.53-1.07,1.07-.36,1.61.36Zm-2-5.72.18-1.07.54-.71.89-.36.89.54v1.25l-.54,1.79Zm3.21,17.14H342.8l.54-.54h.89Zm1.79-6.07-.71.54h-1.07l.18-1.25.89-.36.89.18Zm-1.43-5.71v-.72h.72v.72ZM347.8,114v-2.32h1.43l.18,1.61-.53.54Zm2.68,12.15-.89-.54-.71-.89v-2.14l1.25.18.89.71.36,2Zm3.39-32.68L353,95.3l-1.79.89-1.25,1.61-1.43,4.11H346.2l-3.75,2-1.61,1.25-.89,2h-2l-.18.71-3.57,2.68-2-1.07-.89.72-.71,1.25-3.75-.36-.89-.54-1.07.18-.89.72-3.21-.72-1.07.36-.53.71-2.14-1.25L316,110.3l-.89.36-.89-.71-5.36-1.25-5.18-3.21-2-.36-1.43-1.78-.89-.54H298l-6.79-8.39-4.64-7.5-.36-3.39-1.61-4.11.54-1.07-1.07-2.86V73.34l-.54-2.14L285,69.58l-.36-2.32.54-1.07.71-3.21V60.66l3.39-5.71,1.61-1.61L291.2,51l.89-.53,4.46-4.82,1.79-1.25.71-1.25,1.25-.36,1.43-1.61,8.57-3.39.53-1.25,2.14.18,2.14-.36.72-.54,3.39.36.89-.53,1.25-1.43,1.07.36,1.25,1.61,1.07.36.54-.53.18-1.79,1.79,1.25,2.14.71L331,34.77l1.25-.18-.18,2,1.79,1.25,6.07,2.68v-2l1.78,2.14.18,1.25,2.32.18-.53.89.36.72.89.53,2.14.54.18,1.25,2,1.07.18,1.07,1.07,2,1.43,1.25,2.14.72-.71.89.36,1.07.54-.89,1.25-.54-.36,1.43-.72.89,2,3.75L358,62.8v2.14l1.07,2.5.18,4.11-.54,8.75.36,2.14-1.07.89.71,2.68h-1.25l-1.25,1.61-.71,2,.18,1.07.72.89-1.07.18-.89-.54Zm3.57,8-.36.89H356l.36-1.25Zm7.37,15a5.86,5.86,0,1,1,0-8.29A5.86,5.86,0,0,1,364.81,116.51Zm4.06-23.88-2,.89V92.26l-.54-.71.54-.89h1.79l.53.89Zm.36-4.29-.89-.54.18-1.07.89.54Zm0-47.86h-.89v-.89h1.25Zm1.43,63.93h-.71v-.54h.71Zm10.72-42.5.36.71h-.54l-.36-.36Zm-2-10.54.36.89-.89.36Zm-3-18.57.53.72-1.07-.18-.36-.71Zm-.54,10.36.89.54.36.71-1.25.36-.54-.71Zm-.18,6.07.89-.18-.36.89-1.07-.18Zm-.71,3.39v1.25l-.36.89-1.07-.36V53.34l-.36-2,1.25.36ZM373.16,38h.71l.36.89H372.8Zm0,19.64-.36.71-.89.36-.36-1.43.71-.36ZM370.84,46.2l1.43.18-.53.72h-.89ZM373,89.58l.53-1.07,1.07-.54.18,1.07-.53,1.07-1.07.54Zm2,13-.71-.71v-1.25l.71-.89,1.07,1.79.18,1.25Zm0-21.61.71-.71,1.25.36-.89.72Zm1.79,17-.54-1.07h1.25l.36.89Zm1.43-4.64h-.71v-.71h.71Zm.72-3.75-.36-1.07-.89-1.79.53-1.07,2.32,1.07v1.43l-.54.89Zm.89,10.18-.36-.71.36-.89.89.36.18,1.25ZM376.83,79.2a5.86,5.86,0,1,1,5.86-5.86A5.86,5.86,0,0,1,376.83,79.2Zm6.33-25.51h1.25l-.72.89Zm.89,32-.36-.71L384,84l.89.36.54,2Zm1.61-25.53.36-.89,1.07.36-.36,1.25-1.07.36Zm1.78,11.43h-.71V70.48l1.07.36Z"/><path class="cls-2" d="M235.62,211.79l.36,3-.53,2.14-.89,1.79.71,2-1.61,6.07-.71.54.36,2-2.14,4.82L229,237.68l-.71.36-1.07-.18.18,1.07.89.36-2,2.68-1.07.54-.18,1.25-1.79,2.68-4.82,4.11-2.32.18.54,1.07-5.18,4.29-1.07.36.36,1.25-.71,1.07,1.61,2.14-.18,1.07,2.86,2.86.71,2.14,2,.89,1.25,2.68,1.79,1.43v2l.89.36,1.43,1.43,2.14,3.57,1.43,1.43,1.07.36.53,3.39.89.53,1.43,1.79,1.61,1.25.71,2.32,3.22,3.93.36,1.07-2,3.57-4.29.36-2,.71-3-.54H211.34l-6.07-.53L202.94,300l-6.25-1.25-2-.89-.36-.54v-1.07l-1.61-.36L191,293.57l-.89-2-2.68-3-.89-2-1.07-.18-.18-1.25-1.07-2-1.79-1.07-.18-1.07-3-5.18-1.61-1.25-.71-1.25.71.18-.18-.89.54-.89-1.61-.72-.71-.71-.36-1.07.71-.72-.53-1.07-3.57-1.07L170.8,265l1.43-1.25-1.07-1.43-1.07.36-.36-1.79-1.25,2L165.8,262h-2l-1.07.36-1.25-.54-.53-1.07-.72,1.07-1.25.54-4.29-1.61-.53.71.18,1.25-1.07.36-1.25,1.79-1.61,5.36,1.43,1.78-.54.89v2.5l.54.89-.71,1.07v3.39l-.54.71-1.07.36,1.25,1.07.36.89-1.07.72,1.07,2,.18,3-.53,6.25-2.32.54.36,2-1.25.54-4.29.89,1.61-2-1.07-.54-1.43.18-.89.54.71,1.43-3.93-.36-4.29.18-2,.54-.36-1.43-2.86.89h-3.93l-2.5.54-.54-1.79-1.79,1.43-1.25-.18-1.79-1.25-1.43-1.61-.89-3.21v-2.32l.54-2.14.89-1.79-.72-.71-.36-1.79-.54-.89,1.61-2-.36-.89-1.25-1.07.72-3.39.36-4.47-.54-.71-.54-3,1.07-1.61-.54-.72-.54-2,.18-2.14,1.07-4.11-.53-.89-1.07-.71.89-4.29.54-.72-.54-1.78-.54-4.82.36-2.14.89-1.79.72-.53-.36-.89-1.25-1.07.53-.89,1.07-.53L114.91,235l-.36-2.14.36-3.57-.18-2.32-.54-.89.54-4.82-.54-.71.89-2v-3l.54-2-.54-.89-.54-2.14.72-3.93-1.07-2,.72-3.21-.18-2-.54-.72,1.43-5.71-1.43-2.86,1.61-1.07v-.71l-1.61-3.22.89-2.14.71-4.11-.18-1.07-1.07-1.25.54-2.86-.54-4.29.18-1.07.89-1.61-.89-1.61-.18-1.07,1.25-2.32v-1.25l3.22-1.07,2.14-.36,2.32.18,2,.89,1.78-1.07,2.32-.36,1.07.71.89-.71h.89l1.61,1.07,3.22-1.07,2.32.36.72.71,2.32-.89,2.32-.18,8.57.36,2-.54.71.54,1.25.18.71.54,1.61-.89,1.25-.18,1.07.53h1.25l1.07-.53.89.71.36,1.07,2.86-1.07,1.07.36,2-.71h6.61l2-.36.89.53.54.89,4.11-1.25h2.5l2.32.54,1.61,1.25,1.25-1.25,3.75,1.25V163l2-2.32,1.79,1.43,2,.53,4.29.36,1.07.36,1.07,2,1.61-.36,4.64,2.32.36,1.07,2.32.36-.36,2,1.25.18,2,1.07,1.25,1.61L224,175l1.07.36.18,1.25.89,1.78,2.32,3.22.54,2.32.54.72,1.78.89,1.25,6.61.71,2,1.25,1.61V197l.89,4.11-.18,2.5.54.89.36,3.39L235.8,210l-.54.89ZM120.8,192.15l.36.89h.89l-.18-1.79-1.07-.18Zm1.07,54.1H120.8v.89h.71ZM121,256.79l1.43.89-.18-1.07-1.43-.89Zm.18-78.92h.89V177h-.54Zm1.25,63v-.72h-.54v.72Zm.89-16.43-1.25-.36.18,1.07.89.18Zm-.89,5.36.71.54.36-.89-.71-.72-.71.36Zm2.68-34.11-.71.36.36.36h.72Zm.54-15.53.18-.89-.72-.36-.36,1.25Zm1.61,9.64-.71.36-.36.89,1.25.18.71-1.07Zm-1.07,17.86.89.18.54-.54.18-1.07-1.61-.36Zm2,19.11-.36-1.07-1.07-.36-.54.89.54.89,1.07.54Zm-1.78-51.07.71-.54-.71-.54Zm.71,11.6,1.25.36.71-.53-1.61-1.07-1.07.36Zm0,76.25h-.71v.71h.71Zm-.54,12.5.54-.18-.71-.71Zm2.32-53-.72-.54v.89Zm.71-21.25.18-1.07h-1.25v1.78l.89.18Zm.89,49.46.89-.54-.54-1.78-.71-.54-1.07-.18-.36,2.86.71.36ZM129,162.15l.36.89.36-.18Zm1.07,13.21-.36,1.07.53.89,1.07.54v-1.43l-.36-1.07Zm0-2.32.71-.54-.71-.53Zm1.07,56.6-.71-.53V230Zm.54-26.07-1.07-.18.36,1.07,1.07.18Zm1.43,57.5-1.07-.36-.89.18L131,262h2.32Zm-.18,12.5-.18-1.07-1.25.18-.53.53,1.43,1.43.89.18Zm-.54,5h-1.07l.36.71,1.07.18Zm-.36-54.82v1.07h.71l.18-.72Zm.54-35.18-.18.89.89-.54-.36-1.07Zm1.07,46.61-.89.36-.36.72.89.53,1.07-.18.53-.89-.18-.71Zm.72,17.86-1.07-.36-.89.18.36.89.89.36Zm-1.61-68.21H134v-.54h-1.25Zm1.25,10,.36.71.89.18v-1.25Zm.89,74.46h-.53V270h.53Zm-.18-77.85.18.36h.72l.36-.36-.36-.89-.89.18Zm0,73.92.89.54.36-1.07-1.07-.54Zm.18-93.92,1.07.18.36-.89-.36-1.07h-1.07Zm1.79,40.35v-1.25h-1.07l-.72,2.14.72.89Zm-.36-37v-1.07l-.71-.36-.36,1.61ZM136.16,277l.54-.53h-1.07Zm1.61-16.43-.36-2.32-.71-.89-.89,1.79.36,1.78.89.54ZM136,244.29v.89h1.07v-.89Zm1.25-55.71-.54-.36.36,1.25Zm0-2.68,1.07.53v-.89Zm1.25,70-.89-.53-.18,1.07.89.71Zm.18,15.36h-.71V272h.71Zm.72-37,.89.36.36-1.07-1.07-.71-.89.71Zm-.36-6.61.53,1.43.36-1.43Zm1.25,35.53,1.07.18-.36-.89-.89-.36-.54.54Zm0-37.68,1.07.18-.36-1.07-1.07-.18Zm.71,20.18-1.07-.18.36,1.25,1.07-.36Zm.89,31.25-.54-.71-1.07-.36-.18,1.07.54.89,1.25.36Zm-.54-33.21.71-.89-.18-.89-.89.36-.71,2Zm-.71-70.53.36,1.07,1.07-.36V173l-.71-.71ZM142.41,258l.53-.89-.89-.36-.71.36.18,1.25Zm1.07-58.39h-.89l.18.89.71.18ZM145.09,265l.36-.89-.18-.89-1.07-.18-.36,1.25.36,1.07Zm-.71-73,1.07.18.36-.71-.54-.36h-1.07Zm-.18,40h.72v-1.25h-.72Zm2.14-42.68-.71-.54v1.07ZM145.8,172l1.25-.18.18-1.07-1.43-.36Zm.71-6.43-.54.89.18.89,1.07-.18.54-.54v-1.25Zm.71,69.1.89.36-.36-.89-.89-.54Zm.54-36.6-.54-.36v.89l.54.53Zm.18,48.75.89.54,1.07-.18-.36-1.25-.89-.54-1.07.18Zm1.79,10.89.36-.89-.89-.36-.72.71.36.89Zm1.61-15.89.72-.36.36-.89h-2.5l.18,1.43Zm-.89-57.5,1.61.18-1.25-1.79-.36-1.07Zm1.07,69.11h-.71v.71h.71Zm23.57-24.28,1.07.36,3.39-.36,2,.53.71-.71,2.14-.89h2.32l1.07.36,5.72-3.21,2.86-3,.89-2,1.79-1.43v-1.43l.36-1.07,1.25-1.79-.71-10.89-6.61-7.86-1.07-.36L188.66,193l-2,.36-.54-.89.18-1.79h-.89v2.14l-2.32-1.07-1.61,1.07-2-.71-4.29.36-2-.36L171,193l-.89-.54-2.5-.18-.89.54-2.32-1.79-1.43,1.07-1.25-.36-3.39.53-4.46.18-2.68,3.93v12.14l.71,2-.36,3v12.86l4.29,2.32,3.75-.36,2.14.36-.18,1.07.54.89,1.61-1.61.72.53.36-.89,1.07-.36h2.5l1.25-.36,1.61,1.07,2.14.18.89-.89Zm-23.21,7.32.18.89.89-.18.18-.89-.71-.54Zm.18-67.14h1.07l.36-.89-1.07-.36Zm1.43,84.1h-.71v.71h.71Zm1.25-5.89h-.89v1.07l.89.18Zm.54-61.25.54.54-.36-1.25Zm3.93,65.89.54-.71-.36-.89-1.07.18-.54.89.18.89.71.54Zm-1.07-74.28.18.89,1.07.18.36-.71L158.66,177Zm1.79,70.35.72-1.43-.36-.89-.89-.36-.53.53-.18,2.14Zm-.18-6.07.89.18.36-.71-1.25-.36Zm5.17-71.6-.89-.18.36,1.25.89.72.36-1.61Zm1.79,10.89-1.07.18.71,2.32,1.61-.71V182l-.36-.71ZM166,240.9H167l.18-.89-.89-.18-.71.36ZM167,189.47l-.36,1.07h.89v-1.07Zm.54,65H167V255h.54Zm.36-75.89.72.36-.72-1.07Zm2.68,68.92.71-.54.18-1.07H168.3l1.25,2Zm-1.07-73.75.36.89.71-1.61-1.07-.71Zm1.61,7.14.53.54.89.18.54-.72.18-1.25-1.25-.36-1.07.36Zm-.18,3.93h.89l-.54-1.25Zm2.14,68.75.18-.89-.72-.89-.71.36.54,2.14.53.71Zm1.43-4.11v-.71h-.72v.71Zm.71,11.43-.71-.18v.89h1.07Zm.18-95.35-.54,1.25,1.25-.18.36-.89Zm.36,76.78,1.25-1.25.36-1.07-.36-1.07-.89-.71-1.25,3.93Zm1.07,13.4H175.8v1.07h1.07Zm1.61-78.21-2,.36.71,2.14,1.07-.18.89-1.61Zm.18,73.57.54-.89-.72-1.25v-2l-.36-1.07h-.89V247l.54.89-.89,3.93,1.25.36Zm-.89,1.43-.89.72.89.53Zm-.54-88.74h.54V163h-.54Zm2.5,7.5,1.07.18V170l-1.25.36Zm2.68,66.07h-1.25l.18,1.07.71.18Zm0-61.6V177h1.07l.36-2h-1.07Zm2,90.17.36-.89-1.07-.36-.89.71.72.89Zm-1.07-16.79v.72l.89.36v-1.43Zm1.07-4.11.36-1.07h-1.07l-.18.89ZM184,256.07l.72.71,1.07.36.89-.36-1.43-1.61-1.07.18Zm.89-69.82-.71.89.71.36.89-.18.36-.89Zm.36,75,.18-1.07-.71-.54-.54,1.07.18.89Zm.54-78.75v1.25l.89.18v-1.43Zm3,58.57-1.07-.18-.71-.72.36-.89-.71-.71-.89,3,.89.36,2.32.18ZM187,271.61l-1.25.54,1.25.36Zm.89-3.75-.71-.71-1.07-.18.54,2,1.07.36ZM187.41,180l2.68-2.14-3,.36Zm.18-6.61-.36.89.36,1.07.89.53.53-.71v-1.25l-.36-.89ZM187.41,235l-.18.71.53.54Zm.72,11.07.89,1.43.36-2-.89-.36Zm2,16.61-1.07-.36-.53.71.36.72.89.18ZM189,274.46h-.53v.72H189Zm.36-88.93h1.07l.71-.53.18-.72-1.07-.36-1.25.36Zm.18,57.68,1.07.36-.36-1.07-1.25-.36Zm2-63.93-.72-.71-1.07.36.36.89,1.61.71Zm0,79.1.18-1.07-1.07-.18-.36,1.07.72.89Zm.89,11.25h-.71l-.36.89h1.43Zm.18-35.18-.54-.54-.36.71,1.07.72Zm-.18,14.82.72.71.89.18.71-1.61-2.32-.18-.71.36Zm.89-77.68.89.36.72-.54-.18-.72h-1.79Zm1.07,72.32-.89,1.78-.18,1.07,1.07-.18.89-1.61v-1.07Zm-.36,37.5h-.72v.71H194ZM194,240l.53,1.07,1.07.54.36-2-2-.36Zm.89,38.21H194l.89.89Zm0-96.07-.54,1.07.36.71.89.36,1.43-2.14-1.07-.53Zm0,90.54.71-.18-.36-.89-.89.36Zm1.25-15-.89-.54-.36.89,1.07.71Zm0-5.89.89.71h.89v-1.07l-1.25-.72h-1.07Zm.18-16.43v1.25H197v-1.25Zm.36-55.35.54.18-.18-.89Zm.54,51.07v.54h1.07Zm1.07-56.43-.72.72.36.89.89-.36.36-.89Zm.53,105.18.18-1.07-1.43.36.36,1.07Zm-.71-111.24.89.18v-1.07h-1.07Zm1.25,107.31.54-.71-.89-.72-1.07-.18.36,1.61Zm.71-17-.71-.71-.71-.18.36,1.07Zm-.71-20.18,1.07.18.54-.71-1.07-.54-.89.18Zm.18,3.75.36.71.71-2h-1.07Zm.36-62,.36,2h1.25l1.07-1.61-.53-.71-1.79-.54Zm1.43,72.85.18-.54-.89-.36v.89Zm1.61-3.93-.54-.71-1.07-.18.18,1.25,1.07.71Zm-1.07-70.89.89-.18.18-1.07h-1.43Zm2,83.21v-2.14l-2.32.36.18,1.25.53.71,1.07.36Zm-.53,4.11-.72-1.61h-1.07v1.79l.71.72,1.07.18Zm-.18-74.64-1.25,1.25,1.43,1.25.89-1.43v-1.25Zm.18,37.5h.53l-.36-.71-.53.36Zm1.78,6.43-.36-1.07-1.07.18.36,1.07.71.71.89-.18Zm0,20.89-.71-.54-.71.18.54,1.07,1.07.36Zm.72,17.32-.18-1.79-1.79.36V273l1.79,1.25Zm.36-95.89-1.25.36-.36,1.07,1.61,1.25,1.07.36v-2.68Zm-.54,62.5v-.72h-.71V240Zm1.25,5.89-1.25-.36-.36,1.07.36,1.25h1.25l.72-1.07Zm-.18-61.25.18-.89-1.07-.54-.18,1.61Zm.53,66.06h-1.61l.18.89,1.07.18Zm-1.43-40.53v.72l.71.36Zm2.68-20.89-1.25.36-.71.89,1.25,1.07,1.07.18.71-2Zm0,52.67V240.9l-1.25.36Zm.72-17h-1.61l.18,1.25,1.07.18ZM209,277.68l.72-.89.18-1.25-1.07.36-1.07,2Zm1.07-74.46.89-.72.53-1.07-1.25-1.25-1.07-.18.54,2.14-.89.89Zm-.54-7.86v1.07l.89.36.36-.89-.18-1.07-.71-.36Zm1.79,18.93.71-.54v-.89l-1.07.54-.54,1.07Zm-.54-37.68v1.07l1.07-.36.18-.89-.89-.54ZM212,207.33v-1.07h-.89v1.43Zm.36-18.57h1.07l.71-.54.18-1.43-2.14-.18-.72.71v1.25Zm0,55.35v-.89l-.89.72.54.89Zm1.43-24.46-.72.89h1.25Zm0-19.64.36,1.07.89.36,1.25-2.32L215.8,198l-.89-.18-.89.54-.53.89Zm.36,3.93-.71-.36v1.07h.89Zm1.43,27.14.71-.36v-1.07h-1.25l-.36,1.07Zm-.36-37.32.18.71.89-.36v-.89l-.89-.36ZM217.58,212l.71-.71-.18-1.07-1.79-.18v2.14Zm1.79,10.36-.54-.72-1.07-.18L217,223l2.32.36Zm-.72-36.61-.89.54h1.61l.18-.89-.53-.54Zm2.68,10.53-.71-.36-2,.36-.53.89,1.25.36,2.32-.18Zm-2.86,19.29-.18,1.07.36,1.07,1.43,1.43.18-.89-.89-2.68Zm2.32,19.28.89-.18-.36-2-.71-.36-.54,2.32Zm-.53-7,.18.89.89-.71-.71-.89Zm.18-35.89v.89h1.25l-.18-1.43-.89-.36Zm1.25,21.79-.71-.18v.89H222Zm1.07-10,.71.72.89-.18-.71-.89-.18-1.25-1.07-.53-.72,2Zm.53,5.54v-1.43h-.89l-.36.89.36.89ZM224.37,195l.89-.18-1.25-.72Zm.71,20-.71-.71-.36,1.07.71.54Zm4.11-8.22-.72-.36-.54.89,1.07.36Z"/><path class="cls-2" d="M293.27,274.29l.89.89,2.14.18-.89.89-.18,1.25-.54.72.72.36,1.25-.36-.72,2.14v2l.72,3.57h-2l1.43,3.93.18,2.14-.36,3.75-1.61.71-.89,1.79-.89.54-4.82.18-2,.53-2-1.07-2.14.89-3.75.36-6.07-.71-2.32.18L268.27,298l-.72,1.43-2-1.43-1.25,1.07L262.55,298l-2.14-2.32.18-1.25-.36-1.61L259,291.43l.71-2.32V285l-.36-2.5,1.61-2-1.61-2.86,2.32-.72-1.61-5v-1.25l.89-.53,1.79-3.39-1.25-.18-.54,1.07-.54-.53-.18-2,1.07-1.78-1.61-1.61h2l-1.43-1.61-.54-1.07,1.07-.54-.18-5.36-1.25-2,.89-1.79.18-2-1.07-7.5,2-1.25-.54-.89-1.07-.36.18-1.25-.36-4.82.18-3,1.07-1.79-.71-.53-.71-2.14.18-2.32.89-1.61-.89-3.75-.18-2.32.89-2,1.43-2-1.78.36-.89-.71.53-.72,1.25-.18-.36-2,.72-.71,1.25-.36-.18-1.07-.54-.71-2-.71,1.07-2.14V197l-1.07-3,.89-2,.18-1.43-1.43-1.61.36-3.21.89.71,1.07-.36-2-1.43.54-.89-.54-3,1.07.36.89-.36-.53-1.25-.72-.54-1.07-.18.54-.72,1.07-.36.36-.89-.36-.89h-.89l-.71-.53.54-.72.36-2,.71-.54-1.43-3.75v-2.32l.72-3.21,1.43-2.5,1.61.18,1.25-1.43,1.43-.18.36,2,1.07-.36,1.07-1.43.89-.54.54,2h1.43l1.25-1.43,1.07-.54,2,1.07,4.29-.89,2.5-.18,1.43,1.79,1.43-1.43h1.25l.53,2,1.43.36-.36-1.07L287,158.93l3.57.54,1.79,1.07.71,1.61-.18,1.07,1.43.72.71-.54-.36-1.07.36-.71.89.54v3.39l-.36.89-.54.36.36.89,1.25,1.43-.54,1.79-.89.18.89,1.61v6.61l.54,1.79-1.43,1.61.18,3.22-.72.71.89,1.79.89,3.93v6.25l.71,4.29,2.32-.72,1.61-1.07h1.07l.36-.72v-1.25l3-1.61.18-1.25,1.43-.71.53-3,.72-.89,2,.71.54-.89.18-1.43,2.32-.71-.18-1.25.89-1.61.18-1.07.89-.36h2.14l.89-2.14,2.86-3.39,1.79-1.07-.36-.89.18-1.07,2-.71.72-.89.53-2.32,1.61-.36.71,2,1.61-.89-1.61-1.79,1.25-1.61,2-.89-.18-1.43,6.43-6.25,2.68-2,.72,1.07,8.39-1.79,3.21.71.89-.71.89.54,2,.36,2-.36,1.78-.89.89.54h6.43l1.61.89,1.25-1.43,3.93,1.25.89-.18.54-.71,1.61,1.79.36-1.43,2.68,1.43-.36.54H379l2.14,2.5.18,1.25-2.68,1.25v1.43l-.54,1.07-2,.89-1.07-.18-1.25,3.39-.71.89h-2l-.18,2-1.07,2-1.79,1.61-3.22,1.43v2.32l-.89.54-2.68,3.21-1.79,1.25-1.25,2-1.61.36-1.07,2.14-6.25,7.32h-1.25l-.89,2.14-2.32,2.14-.54,1.07-2,.54-.89,2-2.5,3.39-3,3-1.79,2.5-2.32,1.43,1.43,1.25v3.39l8.57,11.07-.36.72,8.93,12-.36.72-.71.18,8.22,7.86v1.25l.36.89,1.43,1.25-.36,1.25.72.89,1.25.18,7.68,10.18,1.43,3,1.43.54,5,7.32,2.14,3.93.89.89,1.25.36.54,2.14,2.14,3.22.18,1.25-1.25.36.54,1.25,1.79.71v.71l-2,2.32-6.61-.36-.71.36h-1.07l-1.25.71-8.75-.18-2.86-.54-1.25.71-2-.36-1.25.54-8.39-.71-3.22.18L344,297.68l-1.61-.89-1.25-1.61v-1.43h-2l-.89-2.32-1.78-1.25v-1.61l-.54-.89-1.43-.18.36-1.25-1.25-2.68h-1.07l-.71-.36-1.25-1.61-1.07-3.39-3.39-2.14-1.07-1.61v-2.14l-.72-.71-2-.54-4.29-7-.71-2.32L314,259.11l-5-7-1.61-1.43-3.21-1.43-1.79,1.25-3,2.86-1.78,1.25.18.89-.71,2.14-.72.89.36,4.64-2.32.89,1.43,1.61.53,1.07-.36,2,.36,6.25-.71-.71-1.07-.18Zm-32.86-51.43h.54v-.53h-.54ZM262,169.47l-1.07-.36.54.72Zm.36,21.07-1.43-.18.54.71Zm-.72,94.1.18-.89-.89-.53.36.89Zm0-102.67.89.36,2-.71.18-.89-2.32.54Zm2,38.39h.71v-.71h-.71Zm2-10.35h1.07l-1.07-.54Zm.36-20.71.36.71.89.18.36-.89-.89-.18Zm.36,14.1.18,1.07.71.36h1.07l-.18-1.25-.71-.36ZM269,222.5l-.54-.89-2.14-.71.18,1.07.54.72,1.07.18Zm-2.68,36.43,4.64,2.14-.53-1.07-2.14-1.25-1.07-.18Zm.89,21.07.72-.53.36-.89-1.07-.36-.36.89Zm0-95.35L269,185l.18-1.07-.36-1.07-1.25-.18-.36.89Zm.72,10,1.07,1.61.89.36.18-1.07-.36-.89-.89-.36Zm.36,38.75.53,1.07,1.07-.18.71-.89-1.25-.18Zm1.25,21.25.36-.89-1.25-1.25v1.79Zm-.18-73.57.89-.36V180l-.89-.36Zm.89,32.68h1.07l.18-1.43-1.25-.36L270,213Zm.36,17.32,1.07-.36.18-1.25-.36-1.07-.89-.54-.36.89.36,1.07Zm-.36,35.35h1.25v-1.07l-.89-.18Zm.36-75.17.72.36.89-.36-.36-.89-.89-.36Zm.36-20.71h.89l.36-.71h-1.25Zm.54,106.78,2.32.36-.72-1.79L271.3,275l-.18,1.43ZM271.3,208l1.07.36.89-.71-1.25-.36Zm0,48.57.18.71.71.54.72-1.07-1.43-.54Zm1.25-30.36.36-1.43h-1.43l.36.89Zm-.72-38.93,1.07.36.71-.71-1.07-.71Zm.36,85.36,1.43.71.18-.89-.89-.36Zm1.07-30.36.36-2.68-1.07-.18-.18,2.32Zm0-21.43,1.07-.36.54-.89-2.32-1.07v1.25Zm0,15.53.36.89.71-.18.18-1.07Zm.36,11.78v1.07l.54.36.54-.54.89-.18-.71-.89Zm.18-45.71h.71l-.36-1.07Zm.36-24.11h1.43l.89-.36v-1.25l-.71-.54-.89.18-.71.71Zm0,15.18.36.89h.71l.36-.89Zm1.07,87.32,1.25-.18.36-1.07-1.61-.71-.53.89Zm.54-26.25h1.07l.54.54.72-.36-2-1.25Zm.71,9.47.36-1.61h-1.07v1.07Zm-.36-78.75,2.68-.36-.18-1.07L277.2,183l-.36,1.25Zm1.43,4.29.54-2-.72-.36h-1.25l.18,1.07.53.71Zm-1.43,14.46.71.71,2.68.89-.36-1.07-.89-.53-1.25-.18Zm0,19.1.89.18,1.79-.89L277.2,222l-.89.18Zm1.79,52.14v-2h-1.07l.18,1.79ZM279.16,180l-.36-1.25h-1.25v1.07l.71.54Zm-.71,19.82-.54-.89-.36.71Zm0,40.53.18-2-.53-.72-.54,2.14Zm-.54-43.75,2.5.18-.36-.89h-1.43Zm2.14,70.18v-.89l-1.61-.54.36,1.25Zm-1.25-17.5h1.07l-.36-.71-.71-.36Zm1.61-19.11.36-1.07-.36-.89-.89-.36-.36.89.54.89Zm-.89-39.28.36.89,1.07.36.89-.18.53-.71-2-.71Zm0,44.46.54.36.36-.54-.54-.36Zm1.25-22.68.71-.71-.53-.71-1.07-.18.18,1.07Zm.71,48.75-.18-1.25-.89-.36-.36.89.36.54Zm-1.07-39.1.54.89,1.07.18.72-.54-.89-.71Zm0,17.68.36,1.07,1.07.36.53-.89-.71-.72Zm.36,38,1.25.18.36-.89-.89-.36Zm2-95.71-.89.36.53.54Zm0,21.07-.36-.71-.53.18Zm-.89,53.75v.72l.89.36.36-.36v-.72l-.89-.36Zm0,14.82,1.07,1.61.89.36.54-2.14-.89-.54-.89.18Zm.36-36.25.89.54,1.07-.18-.54-.89-.89-.36Zm.18-58.93v.89l1.25.36,1.07-.36-.36-.89-.89-.36Zm.36,32.32.36-.36-.72-.72Zm-.36,43.21.36.89h.71l.36-.89Zm1.79-31.78v-.89h-1.07l.18.71Zm0-21.07.89-.36v-2.32l-1.25-.54v2.14Zm-.36,44.82,2,.36.72-.71-.89-.72-1.07.18Zm1.61,5.36.36-.89-.18-1.25-.89-.54-.71,1.79.36.71Zm-.36,19.82v-.71h-.89Zm1.43-80.17-1.43-1.07-.54.89.36.89.89.18Zm-1.79,43.57h.71v-.72h-.71Zm.36-38,1.43-.54-.36-.89-.72-.54-.54,1.07Zm1.61-21.07-.18-2.68h-1.07l-.36,1.25.71.89Zm-1.25,33h.89l1.43-1.61-.89-.36-.89.18-.36.72Zm1.07,5.18.36-1.07-.54-2.32-.89-.54.18,3.39Zm1.25,48.21v-1.79l-.54-.89-.71-.36-.54.89v.89l.71.89Zm-1.25-60.35.18,1.25,1.25-.18.18-1.07-.89-.18Zm1.25,22.5.36-.89-.36-2.14h-1.07l-.18,1.07.36,1.25Zm0,29.28,1.07-.18.18-.89-.89-.18Zm.89-20.71.71-.89h1.25l.71-.89-1.07-.54-2,1.43Zm-.18,2.32.89.18.18-.89-.89-.72Zm2-19.82-.53-.89L289,212l.36,1.43Zm-.71,10.89.36.89.89.36,1.07-.36-.18-1.25-.71-.54h-.89Zm.36,23.39.89-.36v-1.07l-.54-.54-.71.89Zm0,14.82.89-.36-.18-.89-.72-.36-.18.72Zm2-55.36-.54-.71-.71.36Zm-.72-2.32h1.07l.36-.71H291.3Zm2,32.32-1.07-1.61-.89-.36.18,1.25.54.54Zm-2,4.64,1.43.18-.54-.89Zm1.43-25.18.89-.36-.72-.54Zm.89,31.6,1.07-.18-.36-1.79h-1.07l-.18,1.07Zm1.61-23h.71v-.54h-.71Zm.36,18.21.89-.36.54-1.61-1.07-.36-.71,1.07Zm.36-32.68h.72V210h-.72Zm0,10.53.18.89.54.36.89-1.25-.72-.18Zm1.07,12,.89.54h1.43l-.18-1.07-.72-.54-.89.36Zm2-5,1.25-.54.72-.89v-.89l-1.07.36-.54.89Zm.89-14.46.36-1.43-.89-.36-.18.89Zm1.61-4.64-.53-.89-1.07-.54.54,1.07Zm-.89,9.46.36.89.89.36.89-.18.54-.71-2-.54Zm3-4.64.18-1.25h-.89v.89Zm0,17.5-.18-.89-.54-.36v.89Zm-.36-7.5.18,1.07,1.07.18-.18-1.07-.53-.53Zm1.61,19.82.18-.89-1.43-1.07-.36,1.07.71.89Zm1.61-5,.18-.72-.71-.71-1.07-.18.54,1.07Zm-.89-17.5.89-.18.36-.72-1.07-.36Zm2,13.21.54-1.61v-1.07l-.89.18-.36,2Zm.54-25,1.25-.18.71-.53v-1.25l-1.07.18-.72.71Zm0,30,.36,1.07.71.53h1.25V240l-.54-.72-.89-.18Zm2.68-14.82v-1.43l-1.61-.36.54,1.07Zm-.89-17.5h.54v-.71h-.54Zm.89,14.46,1.43-3.39-1.07-.18-.89,3Zm2.32,5.54.54-.54.18-1.07-1.43-.36-.53.71.36.89Zm-.72,4.64h1.07l-1.07-.71Zm.72,11.25,1.25-.18L315,242l-.36-.54h-1.25l-.36.72Zm2.32-36.61-.36-1.07.36-2.14-1.78,1.61-.36,1.07.54.89,1.25-1.07Zm-2,5.36h.71v-.71h-.71Zm.89,25.89.36,1.07,1.07.36.72-.36-.36-1.25H315Zm1.79-19.11,1.07-.18.36-.89-.18-.89h-.89l-.36,1.07Zm.36,24.47.54,1.07,1.07-.18-.71-.89Zm.89-13.21,1.07-.54.36-1.07-.18-1.07-1.07.54-.36,1.07Zm1.07-6.61-.36-1.25-.36.72Zm.89,2.32.36-1.25h-1.25l.18.71Zm-.71-16.43h.71v-.72h-.71Zm1.79,27.32.18-.71-.36-.89-.89-.36-.36.89.36.71Zm-1.07,3.93H320l.36-.89h-1.07Zm2.32-40.18-.89-2.86-.72-.54-.36,1.25.36,1.07.72.72Zm-1.25,2.68.53.36-.53-1.07Zm.89,44.46-.18-.89-.71-.18.18.71Zm-.53-31.25,2-.36-.18-1.25-.53-.54-1.07-.18-.36,1.25Zm.18-4.64h1.79l-.71-2.68h-1.07l-.18,1.78Zm1.43,19.64-.54-.89-1.07-.36.18,1.07.54.54Zm2,10.89-.71-.71-1.25-.18.18.89.89.36Zm-1.43-19.11,1.07-.36.71-2.14-1.43-.71-.54.89-.18,1.25Zm3.39-20.36v-2l-.72-.36-.53.71v1.25Zm0,5.89.71.72.54-1.07-.36-.36Zm.36,37.32,1.25.36-.54-1.07Zm2,15.36h1.25v-.89l-.89-.36Zm1.61-76.78v-1.07l-.36-.71-.89-.18v1.07l.36.71Zm-.89,15.54.89-.18,1.07-1.43-1.07.18-.71.54Zm1.25,36.25-.71-.89.36.89Zm2-50,1.61,1.25,1.07-2-.53-.89-.89-.54-.71.89Zm.36,5.54.89-.71-.89-.54Zm2,64.28.72-1.07-.72-.72-1.25-.18V255l.36.72Zm-.71-29.1h.71l-.36-.89Zm2,40.89.18-2.68-.71-.54-.72,2,.36.89Zm1.07-27.32.71,1.07.89-.71-.89-.71Zm2-69.46-1.07-.18-.54.36.89.18Zm-1.25,90,.89-.36v-1.07l-.89-.36-.36.89Zm.89-77.14,1.25.18-.54-1.25Zm0,68.74,1.25.36.36-1.61-.89-.36-.53.71Zm.36-57.67.36,1.78,1.07-.18.89-.72.36-.89-1.79-.18Zm.89,63,.18-1.07-.36-.54-.54.89Zm2.68,7.5-.18-1.07-1.07-.18.18,1.07Zm-.54,8.93.18,1.43h1.78l-.36-1.25-.71-.36Zm2-19.64.89.54.36-1.61-1.07-.36Zm.18,33.21H345v-.72h-.71Zm1.07-111.42h1.07l-1.07-.71Zm1.25,91.07,1.25-1.25.18-.89L347,265l-.89.36-.54.71.18.89Zm.36-73.93.71-1.25-1.61-.36V193Zm-.54,67.86v1.07l1.07-.18.54-.89-.89-.18Zm.89-5.18h1.07l-1.07-.71Zm2,21.43v-1.43h-1.25v1.25Zm2.32-105.89-.89-.36.36.71Zm-.89,113.74v1.07l1.25-.18.36-.89-.89-.18Zm2-21.78V262.5l-.89.71Zm1.25,12.5.36-.18-.71-.72Zm3,7-.54-.89h-1.25l.54.89Zm1.25-7.5,1.07-.18.53-.89v-.89l-.53-.71-1.07,1.43Zm2.32,10.18h.89l.36-.71h-1.25Z"/></svg>