<?xml version="1.0" encoding="utf-8"?>
<!-- Generator: Adobe Illustrator 21.0.2, SVG Export Plug-In . SVG Version: 6.00 Build 0)  -->
<svg version="1.1" id="Layer_1" xmlns="http://www.w3.org/2000/svg" xmlns:xlink="http://www.w3.org/1999/xlink" x="0px" y="0px"
	 viewBox="0 0 24 24" style="enable-background:new 0 0 24 24;" xml:space="preserve">
<style type="text/css">
	.st0{fill:none;stroke:#E63B2F;stroke-linejoin:round;stroke-miterlimit:10;}
	.st1{fill:none;stroke:#E63B2F;stroke-linecap:round;stroke-linejoin:round;stroke-miterlimit:10;}
	.st2{fill:none;}
</style>
<g id="Outline_Icons">
	<g>
		<path class="st0" d="M18.5,12.5c0,3.3-2.7,6-6,6c-3.3,0-6-2.7-6-6v-6c0-3.3,2.7-6,6-6c3.3,0,6,2.7,6,6V12.5z"/>
		<path class="st1" d="M4.5,10.5v2c0,4.5,3.5,8,8,8c4.5,0,8-3.5,8-8v-2"/>
		<line class="st1" x1="12.5" y1="20.5" x2="12.5" y2="23.5"/>
		<line class="st1" x1="12.5" y1="0.5" x2="12.5" y2="3.5"/>
		<line class="st1" x1="14.5" y1="0.8" x2="14.5" y2="3.5"/>
		<line class="st1" x1="10.5" y1="0.8" x2="10.5" y2="3.5"/>
		<line class="st0" x1="4.5" y1="12.5" x2="20.5" y2="12.5"/>
		<line class="st1" x1="6.5" y1="6.5" x2="10.5" y2="6.5"/>
		<line class="st1" x1="6.5" y1="8.5" x2="10.5" y2="8.5"/>
		<line class="st1" x1="18.5" y1="6.5" x2="14.5" y2="6.5"/>
		<line class="st1" x1="18.5" y1="8.5" x2="14.5" y2="8.5"/>
		<line class="st1" x1="6.5" y1="10.5" x2="10.5" y2="10.5"/>
		<line class="st1" x1="18.5" y1="10.5" x2="14.5" y2="10.5"/>
	</g>
</g>
<g id="Invisible_Shape">
	<rect class="st2" width="24" height="24"/>
</g>
</svg>
