<?xml version="1.0" encoding="utf-8"?>
<!-- Generator: Adobe Illustrator 21.0.2, SVG Export Plug-In . SVG Version: 6.00 Build 0)  -->
<svg version="1.1" id="Layer_1" xmlns="http://www.w3.org/2000/svg" xmlns:xlink="http://www.w3.org/1999/xlink" x="0px" y="0px"
	 viewBox="0 0 24 24" style="enable-background:new 0 0 24 24;" xml:space="preserve">
<style type="text/css">
	.st0{fill:none;stroke:#E63B2F;stroke-linecap:round;stroke-linejoin:round;stroke-miterlimit:10;}
	.st1{fill:none;}
</style>
<path class="st0" d="M-23.2,23.1h11c0,0-0.5-10-5.5-10S-23.2,23.1-23.2,23.1z"/>
<path class="st0" d="M-16.2,13.4c0.8-3.8,2.3-7.3,5-7.3c6,0,6,17,6,17h-7"/>
<polyline class="st0" points="-15.2,10.1 -13.2,12.1 -11.2,10.1 -9.2,12.1 -7.2,10.1 "/>
<path class="st0" d="M9.3,7c0,0,1.9-0.3,1.9-2.2c0-1.2-1-2.2-2.2-2.1C8.5,1.7,7.5,1,6.3,1c-1.6,0-3,1.2-3.1,2.8
	c-1-0.2-1.9,0.6-1.9,1.6C1.3,7,3,7,3,7H9.3z"/>
<g id="invisible_shape">
	<rect x="-28.7" class="st1" width="24" height="24"/>
</g>
<polyline class="st0" points="23,23.5 16,9.1 9,23.5 "/>
<circle class="st0" cx="39.5" cy="4.3" r="1.8"/>
<line class="st0" x1="23.5" y1="23.5" x2="0.5" y2="23.5"/>
<path class="st0" d="M45.5,20.7c0,0,1.9-0.3,1.9-2.2c0-1.2-1-2.2-2.2-2.1c-0.5-1-1.5-1.7-2.7-1.7c-1.6,0-3,1.2-3.1,2.8
	c-1-0.2-1.9,0.6-1.9,1.6c0,1.6,1.7,1.6,1.7,1.6H45.5z"/>
<polyline class="st0" points="58.2,36.7 52.2,22.8 48.2,30.2 44.2,25.8 38.2,36.7 "/>
<line class="st0" x1="59.7" y1="37.2" x2="36.7" y2="37.2"/>
<polyline class="st0" points="6.4,20.7 3.7,15.1 1,20.7 6.4,20.7 "/>
<line class="st0" x1="3.7" y1="20.7" x2="3.7" y2="23"/>
<polyline class="st0" points="14,13.5 15,14.7 16,13.5 17,14.7 18,13.5 "/>
</svg>
