<svg id="Layer_1" data-name="Layer 1" xmlns="http://www.w3.org/2000/svg" viewBox="0 0 24 24"><defs><style>.cls-1,.cls-2{fill:none;stroke:#e63b2f;stroke-linejoin:round;}.cls-2{stroke-linecap:round;}</style></defs><title>2Artboard 1</title><path class="cls-1" d="M11.5,18V16l-2-3V10l2,2,2.64-1.51a.92.92,0,0,0-.87-1.63L12,9.5,10.59,7.39A2,2,0,0,0,8.93,6.5H4.33a2,2,0,0,0-1.41.59L.5,9.5v3a1,1,0,0,0,2,0V10.58L4.5,9v3.8L3,21.5H5l2-7L8.5,17v1.5"/><circle class="cls-1" cx="7" cy="2.5" r="2"/><line class="cls-2" x1="7.55" y1="23.5" x2="23.4" y2="7.65"/></svg>