<?xml version="1.0" encoding="utf-8"?>
<!-- Generator: Adobe Illustrator 21.0.2, SVG Export Plug-In . SVG Version: 6.00 Build 0)  -->
<svg version="1.1" id="Layer_1" xmlns="http://www.w3.org/2000/svg" xmlns:xlink="http://www.w3.org/1999/xlink" x="0px" y="0px"
	 viewBox="0 0 24 24" style="enable-background:new 0 0 24 24;" xml:space="preserve">
<style type="text/css">
	.st0{fill:none;stroke:#E63B2F;stroke-linejoin:round;stroke-miterlimit:10;}
	.st1{fill:none;stroke:#E63B2F;stroke-linecap:round;stroke-linejoin:round;stroke-miterlimit:10;}
	.st2{fill:none;}
</style>
<g>
	<path class="st0" d="M7.2,9.5L0.6,21.8c-0.2,0.4-0.2,1,0.2,1.3c0.4,0.4,0.9,0.4,1.3,0.2l12.3-6.6"/>
	<ellipse transform="matrix(0.7072 -0.7071 0.7071 0.7072 -5.6169 11.7348)" class="st0" cx="11.4" cy="12.6" rx="2.5" ry="5.4"/>
	<path class="st1" d="M16.4,12.2c1.9-1.9,5.1-1.9,7,0"/>
	<path class="st1" d="M11.8,7.5c1.9-1.9,1.9-5.1,0-7"/>
	<line class="st1" x1="18.1" y1="8.3" x2="21.6" y2="7.1"/>
	<line class="st1" x1="15.7" y1="5.9" x2="16.9" y2="2.4"/>
	<circle class="st1" cx="15.6" cy="8.3" r="0.5"/>
	<circle class="st1" cx="8.1" cy="5.3" r="0.5"/>
	<circle class="st1" cx="19.9" cy="4.1" r="0.5"/>
	<circle class="st1" cx="19.2" cy="14.1" r="0.5"/>
</g>
<rect class="st2" width="24" height="24"/>
</svg>
