<?xml version="1.0" encoding="utf-8"?>
<!-- Generator: Adobe Illustrator 21.0.2, SVG Export Plug-In . SVG Version: 6.00 Build 0)  -->
<svg version="1.1" id="Layer_1" xmlns="http://www.w3.org/2000/svg" xmlns:xlink="http://www.w3.org/1999/xlink" x="0px" y="0px"
	 viewBox="0 0 24 24" style="enable-background:new 0 0 24 24;" xml:space="preserve">
<style type="text/css">
	.st0{fill:none;stroke:#E63B2F;stroke-linejoin:round;stroke-miterlimit:10;}
	.st1{fill:none;}
</style>
<g id="Outline_Icons">
	<g>
		<path class="st0" d="M15.1,10c0,3.9-3.1,7-3.1,7s-3.1-3.1-3.1-7c0-3.9,3.1-7,3.1-7S15.1,6.1,15.1,10z"/>
		<path class="st0" d="M14.3,6.5c1.6-1.4,3.4-1.9,3.4-1.9s1.4,4.4-0.2,7.8C16,15.9,12,17,12,17"/>
		<path class="st0" d="M18.3,9c2-0.3,3.8,0.2,3.8,0.2s-0.6,4.7-3.4,6.8C16,18.2,12,17,12,17"/>
		<path class="st0" d="M9.8,6.6C8.1,5.2,6.3,4.6,6.3,4.6s-1.4,4.4,0.2,7.8C8,15.9,12,17,12,17"/>
		<path class="st0" d="M5.7,9c-2-0.3-3.8,0.2-3.8,0.2s0.6,4.7,3.4,6.8C8,18.2,12,17,12,17s0,0,0-0.1"/>
		<path class="st0" d="M3.5,14C1.9,14.9,1,16,1,17.3c0,2.9,4.7,5.2,10.8,5.2c2.2,0,4.8-0.3,5.8-0.9v-3.1h5.4c0.1-2-0.9-3.4-2.4-4.4"
			/>
	</g>
</g>
<g id="invisible_shape">
	<rect class="st1" width="24" height="24"/>
</g>
</svg>
