<?xml version="1.0" encoding="utf-8"?>
<!-- Generator: Adobe Illustrator 21.0.2, SVG Export Plug-In . SVG Version: 6.00 Build 0)  -->
<svg version="1.1" id="Layer_1" xmlns="http://www.w3.org/2000/svg" xmlns:xlink="http://www.w3.org/1999/xlink" x="0px" y="0px"
	 viewBox="0 0 24 24" style="enable-background:new 0 0 24 24;" xml:space="preserve">
<style type="text/css">
	.st0{fill:none;stroke:#E63B2F;stroke-linecap:round;stroke-linejoin:round;stroke-miterlimit:10;}
	.st1{fill:none;}
</style>
<g id="Outline_Icons">
	<g>
		<g>
			<path class="st0" d="M12,0.5C5.6,0.5,0.5,5.7,0.5,12S5.6,23.5,12,23.5S23.5,18.4,23.5,12S18.4,0.5,12,0.5L12,0.5z"/>
		</g>
		<polygon class="st0" points="8.9,16.9 6.9,10.8 12,7.1 17.1,10.8 15.2,16.9 		"/>
		<polyline class="st0" points="16.4,1.4 12,3.3 7.7,1.4 		"/>
		<polyline class="st0" points="3.3,4.6 3.7,9.3 0.6,12.9 		"/>
		<polyline class="st0" points="2.3,18 6.9,19 9.3,23.1 		"/>
		<polyline class="st0" points="14.7,23.1 17.1,19 21.7,18 		"/>
		<polyline class="st0" points="23.4,12.9 20.3,9.3 20.7,4.6 		"/>
		<line class="st0" x1="12" y1="3.3" x2="12" y2="7.1"/>
		<line class="st0" x1="17.1" y1="11" x2="20.3" y2="9.3"/>
		<line class="st0" x1="15.2" y1="16.9" x2="17.1" y2="19"/>
		<line class="st0" x1="8.9" y1="16.9" x2="6.9" y2="19"/>
		<line class="st0" x1="3.7" y1="9.3" x2="6.9" y2="10.8"/>
	</g>
</g>
<g id="invisible_shape">
	<rect class="st1" width="24" height="24"/>
</g>
</svg>
