<?xml version="1.0" encoding="utf-8"?>
<!-- Generator: Adobe Illustrator 21.0.2, SVG Export Plug-In . SVG Version: 6.00 Build 0)  -->
<svg version="1.1" id="Layer_1" xmlns="http://www.w3.org/2000/svg" xmlns:xlink="http://www.w3.org/1999/xlink" x="0px" y="0px"
	 viewBox="0 0 24 24" style="enable-background:new 0 0 24 24;" xml:space="preserve">
<style type="text/css">
	.st0{fill:none;stroke:#E63B2F;stroke-linecap:round;stroke-linejoin:round;stroke-miterlimit:10;}
	.st1{fill:none;}
</style>
<g id="Outline_Icons">
	<g>
		<path class="st0" d="M23.5,13.5V5C21,7.5,9,7.5,6.5,5v8.5c0,5.5,6.5,10,8.5,10S23.5,19,23.5,13.5z"/>
		<path class="st0" d="M17.5,4V0.5C15,3,3,3,0.5,0.5V9c0,2.5,1.3,4.8,2.9,6.5"/>
		<path class="st0" d="M18,16.5c0,1.7-1.3,3-3,3c-1.7,0-3-1.3-3-3"/>
		<path class="st0" d="M17,12c0-0.8,0.7-1.5,1.5-1.5c0.8,0,1.5,0.7,1.5,1.5"/>
		<path class="st0" d="M10,12c0-0.8,0.7-1.5,1.5-1.5c0.8,0,1.5,0.7,1.5,1.5"/>
	</g>
</g>
<g id="invisble_shape">
	<rect class="st1" width="24" height="24"/>
</g>
</svg>
